<svg xmlns="http://www.w3.org/2000/svg" xmlns:xlink="http://www.w3.org/1999/xlink" viewBox="0 0 735.66 259.43"><defs><style>.cls-1{fill:#51aeff;}.cls-11,.cls-14,.cls-16,.cls-18,.cls-2,.cls-20,.cls-21,.cls-24,.cls-25,.cls-31,.cls-32,.cls-35,.cls-36,.cls-39,.cls-40,.cls-41,.cls-42,.cls-43,.cls-44,.cls-45,.cls-49,.cls-52,.cls-57,.cls-58,.cls-61,.cls-65,.cls-7{fill:none;}.cls-3{fill:#e3e3e3;}.cls-4{fill:#ffffff00;}.cls-5{fill:#fff;}.cls-6{fill:#f3b162;}.cls-18,.cls-21,.cls-24,.cls-25,.cls-40,.cls-42,.cls-7{stroke:#003450;}.cls-11,.cls-14,.cls-18,.cls-25,.cls-31,.cls-32,.cls-35,.cls-39,.cls-40,.cls-41,.cls-42,.cls-43,.cls-52,.cls-57,.cls-58,.cls-61,.cls-7{stroke-linecap:round;}.cls-11,.cls-14,.cls-18,.cls-31,.cls-32,.cls-35,.cls-39,.cls-40,.cls-41,.cls-42,.cls-43,.cls-57,.cls-61,.cls-7{stroke-linejoin:round;}.cls-11,.cls-14,.cls-20,.cls-26,.cls-31,.cls-32,.cls-57,.cls-58,.cls-7{stroke-width:0.24px;}.cls-8{fill:#a85b52;}.cls-9{fill:#003450;}.cls-10,.cls-26{fill:#004869;}.cls-11,.cls-16,.cls-20,.cls-26,.cls-39,.cls-41,.cls-49,.cls-58,.cls-65{stroke:#fff;}.cls-12{fill:#3b9cfd;}.cls-13{fill:#ffc900;}.cls-14{stroke:#b4c2c8;}.cls-15,.cls-46{fill:#ff6862;}.cls-16,.cls-20,.cls-21,.cls-24,.cls-25,.cls-26,.cls-36,.cls-44,.cls-45,.cls-49,.cls-52,.cls-58,.cls-65{stroke-miterlimit:10;}.cls-16{stroke-width:2.14px;}.cls-17{fill:#e75e54;}.cls-18,.cls-21,.cls-35,.cls-36,.cls-45,.cls-49{stroke-width:0.48px;}.cls-19{fill:#ff7b00;}.cls-22{fill:#1d1d1b;}.cls-23{fill:#a8d2e6;}.cls-24,.cls-25,.cls-44,.cls-52,.cls-65{stroke-width:0.95px;}.cls-27{fill:#d45752;}.cls-28{fill:#db9c1f;}.cls-29{fill:#f9ae8f;}.cls-30{fill:#1f2c3e;}.cls-31{stroke:#1f2c3e;}.cls-32,.cls-43{stroke:#c27b5b;}.cls-33{fill:#fcc53d;}.cls-34{fill:#b0a948;}.cls-35,.cls-36{stroke:#f2bf24;}.cls-37{fill:#ea5940;}.cls-38{fill:#c87b72;}.cls-39,.cls-61{stroke-width:0.46px;}.cls-40,.cls-41,.cls-42,.cls-43{stroke-width:0.24px;}.cls-42{stroke-dasharray:1.89 1.89;}.cls-44,.cls-45,.cls-52{stroke:#375a86;}.cls-46{font-size:14.81px;font-family:AutourOne-Regular, Autour One;letter-spacing:0.2em;}.cls-47{fill:#8fbed1;}.cls-48{fill:#c5c831;}.cls-50{fill:#997900;}.cls-51{fill:#375a86;}.cls-53{fill:#f2bf24;}.cls-54{fill:#e89f48;}.cls-55{fill:#b0b322;}.cls-56{fill:#d8db40;}.cls-57{stroke:#232426;}.cls-59{fill:#a7bbc9;}.cls-60{clip-path:url(#clip-path);}.cls-61{stroke:#ffc900;}.cls-62{fill:#d6d3d0;}.cls-63{fill:#f5a974;}.cls-64{clip-path:url(#clip-path-2);}</style><clipPath id="clip-path" transform="translate(-32.17 -61.51)"><circle class="cls-1" cx="538.72" cy="175.41" r="11.51"/></clipPath><clipPath id="clip-path-2" transform="translate(-32.17 -61.51)"><path class="cls-2" d="M481.7,253.27h4.91c3.67-3.15,5.09-15.8,5.13-19.44a.9.9,0,0,0-.82-1H472.48a.92.92,0,0,0-.83,1c.05,3.64,1.47,16.29,5.14,19.44h4.91"/></clipPath></defs><title>banner</title><g id="BACKGROUND"><rect class="cls-3" width="735.66" height="259.43"/></g><g id="OBJECTS"><path class="cls-4" d="M43.35,299a26,26,0,0,1,.58,3.29h698a128.48,128.48,0,0,0,21.91-41.57c3.13-10.24,4.87-21.06,3.57-31.69-2.36-19.32-14.58-36.29-29.48-48.81s-32.49-21.33-49.53-30.74c-27.12-15-48.18-39.83-78.39-48.71-24.77-7.27-48.39-12.07-73.12-1.06-22.56,10-39.78,28.79-62.44,38.78-9,4-17.13,8-26.87,4.19-12.42-4.88-24.12-14.8-35.34-22-9.44-6-19.23-12.23-30.29-14-23.19-3.82-44.6,12-67.41,17.67-23.8,5.87-32.28,2.48-54.64-7.57C234,105.13,203,98.37,178,111.68c-18.51,9.85-30.81,29.26-49.94,37.85-11.68,5.25-24.85,6-37.06,9.81-28.67,9-50,35.66-56.45,65a108.3,108.3,0,0,0-1.35,37.78C35,275.1,40.32,286.47,43.35,299Z" transform="translate(-32.17 -61.51)"/><path class="cls-4" d="M92.31,134a13.62,13.62,0,0,0,9,8.86,16.26,16.26,0,0,0,10.33-.87c4.68-1.86,8.81-5.45,10.56-10.16a19.42,19.42,0,0,0,.65-10c-.77-4.39-2.91-8.88-6.89-10.88-4.63-2.33-10.24-.64-14.92,1.6C93.1,116.34,89.51,125.32,92.31,134Z" transform="translate(-32.17 -61.51)"/><path class="cls-5" d="M207.39,136.58a10.07,10.07,0,0,0-3-13.64c-6.84-4.17-18.14,2.72-15.41,11C191.54,141.58,202.94,143.3,207.39,136.58Z" transform="translate(-32.17 -61.51)" style="fill: #f50;"/><path class="cls-5" d="M175.42,142.57a7.48,7.48,0,0,1,.71,3.15c.1,2.51-3.21,4.1-5.49,3.56a4.55,4.55,0,0,1-2.71-6.42,4.76,4.76,0,0,1,4.31-2.23A3.49,3.49,0,0,1,175.42,142.57Z" transform="translate(-32.17 -61.51)" style="fill: #f50;"/><path class="cls-4" d="M478.13,112.06c1.56-3.53,1.65-7.54,1.18-11.36a22.16,22.16,0,0,0-3.15-9.64c-11.17-16.91-40-1.73-36.46,16.69C443,125.05,471,128.25,478.13,112.06Z" transform="translate(-32.17 -61.51)"/><circle class="cls-5" cx="27.54" cy="186.8" r="9.56" style="fill: #f50;"/><path class="cls-5" d="M742.5,228.82a10.09,10.09,0,0,0-3-13.64c-6.84-4.17-18.14,2.72-15.41,11C726.65,233.83,738,235.54,742.5,228.82Z" transform="translate(-32.17 -61.51)" style="fill: #f50;"/><path class="cls-5" d="M746.79,252.26a7.48,7.48,0,0,1,.72,3.15c.09,2.51-3.21,4.1-5.49,3.56a4.55,4.55,0,0,1-2.71-6.42,4.76,4.76,0,0,1,4.31-2.23A3.46,3.46,0,0,1,746.79,252.26Z" transform="translate(-32.17 -61.51) " style="fill: #f50;"/><rect class="cls-6" x="212.77" y="288.91" width="34.76" height="13" transform="translate(428.13 529.3) rotate(-180)" style="fill: #f50;"/><line class="cls-7" x1="180.6" y1="231.47" x2="215.36" y2="231.47"/><rect class="cls-8" x="249.41" y="288.91" width="34.76" height="13" transform="translate(501.41 529.3) rotate(-180)"/><line class="cls-7" x1="217.24" y1="231.47" x2="252" y2="231.47"/><rect class="cls-9" x="218.83" y="233.16" width="5.17" height="2.14"/><path class="cls-10" d="M295.34,280.61a.4.4,0,0,0-.43.16,15.47,15.47,0,0,1-3.65,3.48c-3,2.21-4.88,2.85-4.84,3.9s3.08,1.09,6.54,0,10.52-5.63,10.52-5.63a4.07,4.07,0,0,0,.24-2.49.3.3,0,0,0-.44-.2,9.49,9.49,0,0,1-3.94,1.26A13.16,13.16,0,0,1,295.34,280.61Z" transform="translate(-32.17 -61.51)"/><polygon class="cls-10" points="271.31 221.01 271.64 227.44 267.6 227.44 268.65 222.64 271.31 221.01"/><path class="cls-11" d="M301.2,283.84c.65-.38,1.29-.8,1.91-1.25" transform="translate(-32.17 -61.51)"/><path class="cls-11" d="M300.29,287.92a12.35,12.35,0,0,1,1.92-.09,6.56,6.56,0,0,0,1.33,0" transform="translate(-32.17 -61.51)"/><path class="cls-11" d="M286.92,287.68a3.89,3.89,0,0,0,1.71.45,14.3,14.3,0,0,0,4.23-.32" transform="translate(-32.17 -61.51)"/><rect class="cls-6" x="285.82" y="288.91" width="34.76" height="13" transform="translate(574.23 529.3) rotate(-180)"/><line class="cls-7" x1="253.65" y1="231.47" x2="288.41" y2="231.47"/><rect class="cls-9" x="255.24" y="233.16" width="5.17" height="2.14"/><path class="cls-10" d="M311.24,280.61a.41.41,0,0,0-.44.16,15.33,15.33,0,0,1-3.64,3.48c-3,2.21-4.88,2.85-4.85,3.9s3.08,1.09,6.54,0,10.52-5.63,10.52-5.63a4,4,0,0,0,.25-2.49.3.3,0,0,0-.44-.2,9.6,9.6,0,0,1-3.94,1.26A13.11,13.11,0,0,1,311.24,280.61Z" transform="translate(-32.17 -61.51)"/><polygon class="cls-10" points="287.2 221.01 287.54 227.44 283.5 227.44 284.55 222.64 287.2 221.01"/><path class="cls-11" d="M317.09,283.84a20.22,20.22,0,0,0,1.91-1.25" transform="translate(-32.17 -61.51)"/><path class="cls-11" d="M316.19,287.92a12.29,12.29,0,0,1,1.92-.09,6.57,6.57,0,0,0,1.33,0" transform="translate(-32.17 -61.51)"/><path class="cls-11" d="M302.81,287.68a3.89,3.89,0,0,0,1.72.45,14.35,14.35,0,0,0,4.23-.32" transform="translate(-32.17 -61.51)"/><rect class="cls-12" x="195.7" y="195.1" width="18.34" height="21.42" rx="1.39"/><rect class="cls-10" x="228.89" y="260.98" width="16.3" height="12.67" rx="1.67" transform="translate(-62.45 442.84) rotate(-90)"/><rect class="cls-13" x="189.93" y="199.87" width="12.83" height="16.63" rx="1.39"/><rect class="cls-5" x="222.18" y="265.27" width="12.66" height="8.87" rx="1.67" transform="translate(-73.36 436.7) rotate(-90)"/><ellipse class="cls-10" cx="183.54" cy="203.12" rx="9.83" ry="13.38"/><ellipse class="cls-12" cx="183.54" cy="203.12" rx="7.85" ry="11.39"/><line class="cls-11" x1="184.2" y1="194.54" x2="178.63" y2="200.41"/><line class="cls-11" x1="183.39" y1="197.7" x2="177.81" y2="203.57"/><line class="cls-11" x1="189.36" y1="201.29" x2="183.79" y2="207.16"/><line class="cls-11" x1="188.54" y1="204.45" x2="182.97" y2="210.32"/><path class="cls-9" d="M221.1,275.86s1.5,1.77.82,2.15-1.82-1.4-1.82-1.4" transform="translate(-32.17 -61.51)"/><path class="cls-9" d="M210.31,275.86s-1.5,1.77-.82,2.15,1.82-1.4,1.82-1.4" transform="translate(-32.17 -61.51)"/><path class="cls-5" d="M294.7,264.38a1.08,1.08,0,0,0,.15.57h14.21c.12,0,.17-.28.19-.57s0-.57,0-.64a13.67,13.67,0,0,0-.22-2.3c-.08-.52-.19-2.27-.28-2.77s-.17-.93-.58-.85c-1.51,1.48-3.45-1.19-4.69-.06a10.23,10.23,0,0,1-1.51,1.57c-1.19,1.06-2.45,1.23-4.17,1.95-2.22.92-3,2.2-3.1,2.84A1.18,1.18,0,0,0,294.7,264.38Z" transform="translate(-32.17 -61.51)"/><path class="cls-9" d="M294.7,264.38a1.08,1.08,0,0,0,.15.57h14.21c.12,0,.17-.28.19-.57Z" transform="translate(-32.17 -61.51)"/><path class="cls-14" d="M301.6,259.84l.66.86" transform="translate(-32.17 -61.51)"/><path class="cls-14" d="M300.79,260.36l.66.85" transform="translate(-32.17 -61.51)"/><path class="cls-14" d="M299.86,260.67l.65.85" transform="translate(-32.17 -61.51)"/><path class="cls-14" d="M298.92,261l.66.86" transform="translate(-32.17 -61.51)"/><path class="cls-14" d="M308.61,260.18a4.51,4.51,0,0,0-1.79,3.76" transform="translate(-32.17 -61.51)"/><path class="cls-14" d="M297,261.93a3,3,0,0,1,1.33,2.16" transform="translate(-32.17 -61.51)"/><path class="cls-5" d="M313,264.38a1.08,1.08,0,0,0,.15.57h14.21c.12,0,.17-.28.19-.57s0-.57,0-.64a13.67,13.67,0,0,0-.22-2.3c-.08-.52-.19-2.27-.28-2.77s-.17-.93-.58-.85c-1.51,1.48-3.45-1.19-4.69-.06a10.23,10.23,0,0,1-1.51,1.57c-1.19,1.06-2.45,1.23-4.17,1.95-2.22.92-3,2.2-3.1,2.84A1.18,1.18,0,0,0,313,264.38Z" transform="translate(-32.17 -61.51)"/><path class="cls-9" d="M313,264.38a1.08,1.08,0,0,0,.15.57h14.21c.12,0,.17-.28.19-.57Z" transform="translate(-32.17 -61.51)"/><path class="cls-14" d="M319.92,259.84l.66.86" transform="translate(-32.17 -61.51)"/><path class="cls-14" d="M319.11,260.36l.66.85" transform="translate(-32.17 -61.51)"/><path class="cls-14" d="M318.18,260.67l.65.85" transform="translate(-32.17 -61.51)"/><path class="cls-14" d="M317.24,261l.66.86" transform="translate(-32.17 -61.51)"/><path class="cls-14" d="M326.93,260.18a4.51,4.51,0,0,0-1.79,3.76" transform="translate(-32.17 -61.51)"/><path class="cls-14" d="M315.35,261.93a3,3,0,0,1,1.33,2.16" transform="translate(-32.17 -61.51)"/><rect class="cls-13" x="293.76" y="264.91" width="34.76" height="13" transform="translate(590.12 481.31) rotate(-180)"/><rect class="cls-15" x="293.76" y="272.17" width="12.55" height="3.71" transform="translate(567.91 486.53) rotate(-180)"/><rect class="cls-15" x="315.28" y="272.09" width="13.03" height="3.86" transform="translate(611.43 486.53) rotate(-180)"/><line class="cls-7" x1="261.6" y1="207.48" x2="296.36" y2="207.48"/><polyline class="cls-16" points="248.3 200.63 248.3 215.17 257.64 215.17"/><polyline class="cls-16" points="231.22 200.63 231.22 215.17 221.87 215.17"/><rect class="cls-13" x="239.76" y="190.01" width="7.06" height="26.27"/><line class="cls-7" x1="246.14" y1="195.08" x2="240.44" y2="195.08"/><line class="cls-7" x1="246.14" y1="197.65" x2="240.44" y2="197.65"/><rect class="cls-17" x="232.5" y="190.01" width="7.06" height="26.27"/><line class="cls-7" x1="239.08" y1="212.71" x2="232.99" y2="212.71"/><line class="cls-7" x1="239.08" y1="196.07" x2="232.99" y2="196.07"/><line class="cls-7" x1="239.08" y1="210.87" x2="232.99" y2="210.87"/><path class="cls-12" d="M323.5,173.7l4.73,66.46-10.12,1.06-4.12-46a.1.1,0,0,0-.2,0l-5.62,45.26-9.88-1.15,6-65.58Z" transform="translate(-32.17 -61.51)"/><circle class="cls-11" cx="282.01" cy="113.47" r="0.54"/><line class="cls-11" x1="291.03" y1="114.78" x2="272.29" y2="114.78"/><path class="cls-11" d="M320,176.59a8.92,8.92,0,0,0,.87,3.74,5,5,0,0,0,2.82,2.5" transform="translate(-32.17 -61.51)"/><path class="cls-11" d="M315.18,173.88a51.63,51.63,0,0,1,.24,7,4.05,4.05,0,0,1-.32,1.76,2,2,0,0,1-1.59,1" transform="translate(-32.17 -61.51)"/><line class="cls-11" x1="280.92" y1="112.37" x2="281.66" y2="133"/><path class="cls-18" d="M312.12,168.15s-.09-3.27,2.39-3.27a2,2,0,0,1,1.94,2.88c-.46,1.45-2.65,2.61-2.55,5.06" transform="translate(-32.17 -61.51)"/><line class="cls-18" x1="291.71" y1="111.1" x2="271.76" y2="111.1"/><rect class="cls-9" x="288.38" y="110.07" width="1.23" height="2.64"/><rect class="cls-9" x="273.1" y="110.07" width="1.23" height="2.64"/><path class="cls-19" d="M303.47,172.83l5.29,22.56s-4,3.37-14.5,3.37-14.48-3.62-14.48-3.62l5.83-22.31Z" transform="translate(-32.17 -61.51)"/><line class="cls-20" x1="262.77" y1="111.53" x2="262.77" y2="136.98"/><path class="cls-20" d="M303.85,174.45s-2,1.38-8.92,1.38-9.68-1.63-9.68-1.63" transform="translate(-32.17 -61.51)"/><path class="cls-20" d="M302.19,177.74a.27.27,0,0,1,.32.17c.36,1.05,1.63,5.28-1.1,5.93s-3.88-3.44-4.13-4.51a.27.27,0,0,1,.19-.32Z" transform="translate(-32.17 -61.51)"/><line class="cls-20" x1="270.69" y1="117.63" x2="265.49" y2="119.09"/><path class="cls-20" d="M286.52,177.74a.28.28,0,0,0-.33.17c-.35,1.05-1.62,5.28,1.11,5.93s3.87-3.44,4.13-4.51a.27.27,0,0,0-.19-.32Z" transform="translate(-32.17 -61.51)"/><line class="cls-20" x1="253.68" y1="117.63" x2="258.88" y2="119.09"/><circle class="cls-5" cx="261.44" cy="112.94" r="0.41"/><circle class="cls-5" cx="261.44" cy="117.76" r="0.41"/><circle class="cls-5" cx="261.44" cy="122.57" r="0.41"/><circle class="cls-5" cx="261.44" cy="127.39" r="0.41"/><circle class="cls-5" cx="261.44" cy="132.2" r="0.41"/><path class="cls-21" d="M293.15,168.51s-.09-3.26,2.39-3.26a2,2,0,0,1,1.94,2.87c-.46,1.45-2.55,2.28-2.55,3.9" transform="translate(-32.17 -61.51)"/><line class="cls-21" x1="272.74" y1="110.3" x2="252.79" y2="110.3"/><rect class="cls-22" x="269.41" y="109.28" width="1.23" height="2.64"/><rect class="cls-22" x="254.13" y="109.28" width="1.23" height="2.64"/><path class="cls-23" d="M279.48,174.43s-5.14,1.83-9.93,0l.24,4.54h8.83Z" transform="translate(-32.17 -61.51)"/><path class="cls-18" d="M272.15,168.05s-.09-3.51,2.58-3.51c1.94,0,2.54,1.68,2.09,3.09-.5,1.56-2.6,1.42-2.42,5.17,0,0-15.6,7-15.51,9s30.62,2.45,30.62.29-15.11-9.3-15.11-9.3" transform="translate(-32.17 -61.51)"/><path class="cls-5" d="M295.14,192.59s-5.52-15.22-7.36-16.89-8.3-1.27-8.3-1.27c-1.44,3-5,2.49-5,2.49s-3.52.52-5-2.49c0,0-6.47-.4-8.31,1.27s-7.36,16.89-7.36,16.89l8,3-1.05,25.6a66,66,0,0,0,27.43,0l-1.05-25.6Z" transform="translate(-32.17 -61.51)"/><line class="cls-7" x1="229.68" y1="134.08" x2="230.29" y2="123.57"/><line class="cls-7" x1="255.01" y1="134.08" x2="253.76" y2="123.57"/><path class="cls-7" d="M285.71,199.89c-2.26,4.3-6.51,7.11-10.6,9.74" transform="translate(-32.17 -61.51)"/><path class="cls-7" d="M263.88,186.64a31.84,31.84,0,0,0,6.86,7.6" transform="translate(-32.17 -61.51)"/><path class="cls-24" d="M332.77,301.35V175a16.54,16.54,0,0,0-16.55-16.54H202.64A16.54,16.54,0,0,0,186.1,175V301.35" transform="translate(-32.17 -61.51)"/><line class="cls-24" x1="147.23" y1="239.84" x2="160.63" y2="239.84"/><line class="cls-24" x1="293.89" y1="239.84" x2="307.3" y2="239.84"/><line class="cls-25" x1="155.99" y1="105.42" x2="298.48" y2="105.42"/><path class="cls-10" d="M261.94,173.7l4.72,66.46-10.11,1.06-4.13-46a.1.1,0,0,0-.2,0l-5.61,45.26-9.88-1.15,6-65.58Z" transform="translate(-32.17 -61.51)"/><path class="cls-26" d="M235.86,238.67l-.15,2.66a.28.28,0,0,0,.24.29l10.72,1.15a.26.26,0,0,0,.3-.23l.41-2.55a.28.28,0,0,0-.24-.32l-11-1.26A.28.28,0,0,0,235.86,238.67Z" transform="translate(-32.17 -61.51)"/><path class="cls-26" d="M267.28,238.67l.15,2.66a.28.28,0,0,1-.24.29l-10.72,1.15a.26.26,0,0,1-.3-.23l-.41-2.55a.28.28,0,0,1,.24-.32l11-1.26A.28.28,0,0,1,267.28,238.67Z" transform="translate(-32.17 -61.51)"/><circle class="cls-11" cx="220.44" cy="113.47" r="0.54"/><line class="cls-11" x1="229.46" y1="114.78" x2="210.73" y2="114.78"/><path class="cls-11" d="M258.41,176.59a8.78,8.78,0,0,0,.88,3.74,4.92,4.92,0,0,0,2.82,2.5" transform="translate(-32.17 -61.51)"/><path class="cls-11" d="M253.62,173.88a55.06,55.06,0,0,1,.24,7,4.2,4.2,0,0,1-.32,1.76,2,2,0,0,1-1.6,1" transform="translate(-32.17 -61.51)"/><line class="cls-11" x1="219.35" y1="112.37" x2="220.1" y2="133"/><ellipse class="cls-11" cx="258.83" cy="208.4" rx="3.06" ry="4.61" transform="translate(-54.02 -30.99) rotate(-6.48)"/><ellipse class="cls-11" cx="244.84" cy="208.4" rx="4.61" ry="3.06" transform="translate(-22 366.67) rotate(-83.52)"/><path class="cls-18" d="M250.55,168.15s-.09-3.27,2.39-3.27a2,2,0,0,1,1.94,2.88c-.46,1.45-2.64,2.61-2.54,5.06" transform="translate(-32.17 -61.51)"/><line class="cls-18" x1="230.14" y1="111.1" x2="210.19" y2="111.1"/><rect class="cls-9" x="226.82" y="110.07" width="1.23" height="2.64"/><rect class="cls-9" x="211.54" y="110.07" width="1.23" height="2.64"/><path class="cls-27" d="M211.52,174.43s-5.14,1.83-9.93,0l.24,4.54h8.83Z" transform="translate(-32.17 -61.51)"/><path class="cls-18" d="M204.19,168.05s-.09-3.51,2.58-3.51c1.94,0,2.54,1.68,2.09,3.09-.5,1.56-2.6,1.42-2.42,5.17,0,0-15.6,7-15.51,9s30.62,2.45,30.62.29-15.11-9.3-15.11-9.3" transform="translate(-32.17 -61.51)"/><path class="cls-15" d="M227.18,192.59s-5.52-15.22-7.36-16.89-8.3-1.27-8.3-1.27c-1.44,3-5,2.49-5,2.49s-3.52.52-5-2.49c0,0-6.47-.4-8.31,1.27s-7.36,16.89-7.36,16.89l8,3-1,25.6a66,66,0,0,0,27.43,0l-1.05-25.6Z" transform="translate(-32.17 -61.51)"/><line class="cls-7" x1="161.72" y1="134.08" x2="162.33" y2="123.57"/><line class="cls-7" x1="187.05" y1="134.08" x2="185.8" y2="123.57"/><path class="cls-7" d="M217.75,199.89c-2.26,4.3-6.51,7.11-10.6,9.74" transform="translate(-32.17 -61.51)"/><path class="cls-7" d="M195.92,186.64a31.84,31.84,0,0,0,6.86,7.6" transform="translate(-32.17 -61.51)"/><path class="cls-28" d="M237.18,174.77s-4.36,3.07-13.58,0l6.79,15.43h1.68Z" transform="translate(-32.17 -61.51)"/><path class="cls-18" d="M228.8,168.05s-.09-3.51,2.58-3.51c1.94,0,2.54,1.68,2.09,3.09-.5,1.56-2.6,1.42-2.42,5.17,0,0-15.59,7-15.51,9s30.62,2.45,30.62.29-15.11-9.3-15.11-9.3" transform="translate(-32.17 -61.51)"/><path class="cls-13" d="M223.6,174.77s4.88,9.45,7.64,14.55c4.18-8,4.79-10.55,5.94-14.55,0,0,4,1.46,6.12,3.77l-4.9,24.29s3.63,5.25,7.71,37.31c0,0-6.3,3.57-16.84,3.57s-15.34-3.93-15.34-3.93,3.7-25.53,10-37.47l-5.29-25S219.17,177.06,223.6,174.77Z" transform="translate(-32.17 -61.51)"/><path class="cls-7" d="M224,175.59s12.55,23.49,13.08,27.64.52,38.43.52,38.43" transform="translate(-32.17 -61.51)"/><path class="cls-7" d="M231.24,189.32a85.93,85.93,0,0,0,5.92-14.25" transform="translate(-32.17 -61.51)"/><path class="cls-7" d="M234.39,203.39A21.81,21.81,0,0,1,224,202.31" transform="translate(-32.17 -61.51)"/><circle class="cls-15" cx="203.61" cy="141.78" r="0.54"/><path class="cls-29" d="M316.64,175.59a23.27,23.27,0,0,1-2.71.78,29.45,29.45,0,0,1-5.56.28c-.57,0-1.1-.12-1.67-.08a14.85,14.85,0,0,1-2.31,0,6.52,6.52,0,0,1-2.69-.84c-.24-.15-.67-.4-.34-.71s.94,0,1.28,0l1.32.18a.54.54,0,0,0,.31,0,.21.21,0,0,0,.15-.24c0-.09-.11-.13-.19-.17-1.63-.77-3.67-1.13-4.79-2.67a.31.31,0,0,1-.07-.2c0-.14.2-.19.35-.18a6.55,6.55,0,0,1,2.23.72,3.25,3.25,0,0,0,2.28.28c0-.24-.27-.38-.49-.46-1.4-.52-2.91-1-3.77-2.26-.11-.16-.18-.43,0-.51a.36.36,0,0,1,.25,0c1.46.51,2.8,1.46,4.35,1.61.09,0,.22,0,.25-.1s-.05-.15-.12-.2a10.14,10.14,0,0,1-2.28-2,.57.57,0,0,1-.13-.27c-.08-.58.81,0,1,.08a16.41,16.41,0,0,0,3.84,1.86,1.74,1.74,0,0,0,1.48,0l-1.11-1.79a1.05,1.05,0,0,1-.21-.5c0-.19.14-.39.32-.38a.47.47,0,0,1,.27.12,35.92,35.92,0,0,0,4.26,2.9,7,7,0,0,0,5,.75,9.17,9.17,0,0,1-.19,2.27C316.85,174.47,316.41,175,316.64,175.59Z" transform="translate(-32.17 -61.51)"/><path class="cls-29" d="M346,205.23a36.43,36.43,0,0,0-6.23,6.48c-.9,1.22-2.39,3.23-2.48,4.77.86.24,2.63-1.87,3.26-2.41a7.91,7.91,0,0,0-1.22,3.31c0,.29-.07.59-.09.88s-.14.63.15.59.52-.67.67-.9l.86-1.3.86-1.29a10,10,0,0,0,.83-1.25,10.82,10.82,0,0,0-1,3.44c0,.28-.18,1.43.13,1.55s.74-1.08.82-1.32a6.73,6.73,0,0,1,1.15-2.06,5,5,0,0,1,.49-.54c.15-.16.39-.29.46-.49a10.22,10.22,0,0,0-.34,2.53.54.54,0,0,0,.15.52.37.37,0,0,0,.47-.11,1.11,1.11,0,0,0,.2-.49,27.07,27.07,0,0,1,3.33-8A6.23,6.23,0,0,0,346,205.23Z" transform="translate(-32.17 -61.51)"/><polygon class="cls-29" points="332.82 226.96 332.12 231.95 326.38 231.95 326.61 226.82 332.82 226.96"/><path class="cls-10" d="M344.89,301.07a1.41,1.41,0,0,0,.21.78h20.66c.17,0,.25-.38.28-.78s0-.79,0-.89a17.85,17.85,0,0,0-.31-3.18c-.11-.73-.27-3.15-.42-3.84s-.24-1.29-.83-1.18c-2.19,2-5-1.66-6.82-.08a14.87,14.87,0,0,1-2.2,2.16c-1.72,1.48-3.56,1.72-6.06,2.71-3.22,1.28-4.32,3.05-4.5,3.93A1.63,1.63,0,0,0,344.89,301.07Z" transform="translate(-32.17 -61.51)"/><path class="cls-30" d="M344.89,301.07a1.41,1.41,0,0,0,.21.78h20.66c.17,0,.25-.38.28-.78Z" transform="translate(-32.17 -61.51)"/><path class="cls-11" d="M354.92,294.78l1,1.19" transform="translate(-32.17 -61.51)"/><path class="cls-11" d="M353.75,295.49l.95,1.19" transform="translate(-32.17 -61.51)"/><path class="cls-11" d="M352.39,295.92l.95,1.19" transform="translate(-32.17 -61.51)"/><path class="cls-11" d="M351,296.37l1,1.19" transform="translate(-32.17 -61.51)"/><polygon class="cls-29" points="360.35 223.36 361.16 228.33 355.66 229.88 354.35 224.9 360.35 223.36"/><path class="cls-10" d="M375.86,301.18a1.57,1.57,0,0,0,.39.73l20.2-4.09c.17,0,.17-.42.11-.82s-.15-.77-.17-.88a18.44,18.44,0,0,0-1-3.05c-.27-.68-.95-3-1.24-3.67s-.52-1.21-1.07-1c-1.7,2.45-5.27-.62-6.69,1.27a14.44,14.44,0,0,1-1.69,2.56c-1.36,1.78-3.11,2.37-5.33,3.84-2.87,1.89-3.57,3.84-3.55,4.74A2,2,0,0,0,375.86,301.18Z" transform="translate(-32.17 -61.51)"/><path class="cls-30" d="M375.86,301.18a1.57,1.57,0,0,0,.39.73l20.2-4.09c.17,0,.17-.42.11-.82Z" transform="translate(-32.17 -61.51)"/><path class="cls-11" d="M384.32,293.05l1.19,1" transform="translate(-32.17 -61.51)"/><path class="cls-11" d="M383.32,294l1.19,1" transform="translate(-32.17 -61.51)"/><path class="cls-11" d="M382.08,294.66l1.19,1" transform="translate(-32.17 -61.51)"/><path class="cls-11" d="M380.85,295.37l1.19,1" transform="translate(-32.17 -61.51)"/><path class="cls-10" d="M386,195.82s4.08,11.72-.36,47.47l8.27,43.12-9,2.09s-13.72-34.31-14.8-41.44-2.34-37.86-2.34-37.86Z" transform="translate(-32.17 -61.51)"/><path class="cls-10" d="M356.87,289.8l9.25.27s3.19-12.1,5.71-47.91L386,195.82H361.09s-3.95,34.33-4.82,51.24S356.87,289.8,356.87,289.8Z" transform="translate(-32.17 -61.51)"/><path class="cls-11" d="M371,250.71l-.9-3.65s-2.9-8,1.72-29.21" transform="translate(-32.17 -61.51)"/><path class="cls-11" d="M380,205.18s1.13,6.16,6.56,6.63" transform="translate(-32.17 -61.51)"/><path class="cls-11" d="M386,212.91s-1.83,23.34-2.72,30.38l9.21,42.76" transform="translate(-32.17 -61.51)"/><path class="cls-11" d="M369.66,250.12a366.9,366.9,0,0,1-4.6,39.19" transform="translate(-32.17 -61.51)"/><path class="cls-9" d="M377.89,147.56a2.09,2.09,0,0,0,2.63,0c1.45-1,3.5-4.47,2.4-10s-5.36-4.85-5.36-4.85Z" transform="translate(-32.17 -61.51)"/><path class="cls-29" d="M378.8,145.16c.16.49-.51,11.23-.51,11.23l-6.09,4.28-3.71-2.55,1.38-9.43Z" transform="translate(-32.17 -61.51)"/><path class="cls-29" d="M369.05,151.26a8,8,0,0,0,4.37.1,14.27,14.27,0,0,0,3.45-1.31c.3-.15,1.08-.86,1.42-.86l.25-.95,1.32-4.93.71-2.64s1.63-4.67-3-6.45c-3.36-1.3-6.75-1.37-8.76.06a4.16,4.16,0,0,0-1.6,2.2l-1.05,4.37-.1.38-.28,1.17-.09.4a10,10,0,0,0,.45,5.61A4.75,4.75,0,0,0,369.05,151.26Z" transform="translate(-32.17 -61.51)"/><path class="cls-29" d="M378.77,142.83s1.68-1.83,2.63.25c.78,1.71-1.49,5.1-3.38,3.35Z" transform="translate(-32.17 -61.51)"/><path class="cls-30" d="M373.44,140.57c-.09.43,0,.82.3.87s.53-.26.62-.7,0-.82-.3-.87S373.53,140.14,373.44,140.57Z" transform="translate(-32.17 -61.51)"/><path class="cls-30" d="M368.9,139.78c-.09.43.05.82.3.87s.54-.26.63-.7-.05-.82-.3-.87S369,139.35,368.9,139.78Z" transform="translate(-32.17 -61.51)"/><path class="cls-9" d="M375.79,139.86c.13.12.32.25.48.18a.31.31,0,0,0,.17-.27.65.65,0,0,0-.09-.3,3.12,3.12,0,0,0-1.5-1.52c-.22-.1-.63-.24-.82,0s0,.35.22.51C374.77,138.92,375.28,139.39,375.79,139.86Z" transform="translate(-32.17 -61.51)"/><path class="cls-9" d="M370.47,138.07c.19,0,.41-.08.46-.25a.29.29,0,0,0-.11-.28.91.91,0,0,0-.3-.14,3.36,3.36,0,0,0-2.19.14c-.22.1-.6.31-.53.6s.31.19.56.16C369.06,138.21,369.77,138.14,370.47,138.07Z" transform="translate(-32.17 -61.51)"/><path class="cls-31" d="M371.38,140a35.84,35.84,0,0,0-1.8,4.46.42.42,0,0,0,0,.29c.12.32.75.07.94.37" transform="translate(-32.17 -61.51)"/><path class="cls-32" d="M370.67,147.79a3.64,3.64,0,0,0,3.37-1.64" transform="translate(-32.17 -61.51)"/><path class="cls-32" d="M379.36,144.37a1.57,1.57,0,0,1,.54-.86,1.68,1.68,0,0,1,1-.36" transform="translate(-32.17 -61.51)"/><path class="cls-32" d="M380,143.61a1.85,1.85,0,0,1,.6,1.19" transform="translate(-32.17 -61.51)"/><path class="cls-9" d="M380.59,141.89a1.07,1.07,0,0,1-1-.46,4.74,4.74,0,0,1-.64-1.93,32.86,32.86,0,0,0,0-3.44c-.28-1.36-1.64-1.72-2.84-1.83a10.85,10.85,0,0,0-6.51,1.15,3.58,3.58,0,0,1-2.3.67,5.33,5.33,0,0,1-2.82-2.24,7.24,7.24,0,0,1-1.37-3.83,2.88,2.88,0,0,1,1-2.16,4.25,4.25,0,0,1,2.1-.21,3.83,3.83,0,0,1,3.48-1.39,3.87,3.87,0,0,1,2.95,2.31,6.45,6.45,0,0,1,8.36,1.81,6.69,6.69,0,0,1,1,1.53c.05.15.1,1.65-.11,1.55,1.94.9,1.92,3.56,1.71,5.36-.1.86-.15,1.92-.93,2.44A4.35,4.35,0,0,1,380.59,141.89Z" transform="translate(-32.17 -61.51)"/><path class="cls-32" d="M369.54,151.41s2.64,1.34,7.33-1.36" transform="translate(-32.17 -61.51)"/><path class="cls-13" d="M313.23,170.81a7.76,7.76,0,0,1,3.7-1.07l19.94.58,26.31-14.83a5.58,5.58,0,0,1,7.43,1.82,5,5,0,0,1-1.91,7.09l-27.79,15.67a5.68,5.68,0,0,1-2.76.72,3.39,3.39,0,0,1-.45,0L316,179.07c-1.53-.12-2.86-1.75-3.76-2.8C313.83,173.92,313.6,173.64,313.23,170.81Z" transform="translate(-32.17 -61.51)"/><path class="cls-13" d="M378.72,155.47a38,38,0,0,1,5.83.56,4.74,4.74,0,0,1,3.17,1.67,9.77,9.77,0,0,1,2.07,3.44,17.88,17.88,0,0,1,.62,6.4,149,149,0,0,1-1.6,17.9c-.73,4.82-.84,9.76-1.22,14.64,0,.72-.11,1.43-.17,2.15,0,0-8.18,4.92-27.2,1.42,0,0-4.67-10.5-1.9-34.87,0,0,3.74-13,6-13.5a5.54,5.54,0,0,1,3.39,0s.65,3.47,4.06,3.65S378.72,155.47,378.72,155.47Z" transform="translate(-32.17 -61.51)"/><path class="cls-13" d="M344.92,206.15c.11-1.55,2.19-4.34,3.65-5.27l21.06-13.38,10.7-27.95a4.78,4.78,0,0,1,5.77-3,3,3,0,0,1,1.19.78,8.17,8.17,0,0,1,2.1,8.73c-.46,1.21-.93,2.43-1.4,3.65L384.42,179l-5.17,13.5,0,.1a5.19,5.19,0,0,1-2.08,2.53L353.9,209.26a9.48,9.48,0,0,1-6,.46C347.57,207.49,347.24,206.9,344.92,206.15Z" transform="translate(-32.17 -61.51)"/><polyline class="cls-7" points="326.46 132.97 337.46 125.98 345.01 106.27"/><path class="cls-7" d="M363.13,203.65l14-8.48s1.2-.23,2.82-4.46,6.22-16.24,6.22-16.24" transform="translate(-32.17 -61.51)"/><path class="cls-7" d="M358.21,170.17a55.37,55.37,0,0,1,1-7.58" transform="translate(-32.17 -61.51)"/><rect class="cls-8" x="143.5" y="212.81" width="40.05" height="41.27" transform="translate(364.81 8.41) rotate(90)"/><rect class="cls-10" x="144.9" y="215.43" width="37.26" height="36.04" transform="translate(294.88 405.39) rotate(-180)"/><circle class="cls-33" cx="144.93" cy="159.4" r="0.75"/><circle class="cls-33" cx="142.93" cy="159.4" r="0.75"/><circle class="cls-34" cx="131.31" cy="173.26" r="0.9"/><path class="cls-34" d="M160.19,234.77a.91.91,0,1,1,.9.9A.9.9,0,0,1,160.19,234.77Z" transform="translate(-32.17 -61.51)"/><circle class="cls-12" cx="130.91" cy="159.88" r="1.06"/><path class="cls-12" d="M159.22,221.39a1.06,1.06,0,1,1,1.06,1.06A1.07,1.07,0,0,1,159.22,221.39Z" transform="translate(-32.17 -61.51)"/><circle class="cls-33" cx="144.93" cy="169.34" r="0.75"/><circle class="cls-33" cx="142.93" cy="169.34" r="0.75"/><path class="cls-33" d="M176.34,226.51c0-.41.34-2.76.76-2.76s.75,2.35.75,2.76a.76.76,0,1,1-1.51,0Z" transform="translate(-32.17 -61.51)"/><path class="cls-33" d="M174.35,226.51c0-.41.33-2.76.75-2.76s.75,2.35.75,2.76a.75.75,0,1,1-1.5,0Z" transform="translate(-32.17 -61.51)"/><ellipse class="cls-33" cx="144.93" cy="174.37" rx="0.75" ry="2.76"/><ellipse class="cls-33" cx="142.93" cy="174.37" rx="0.75" ry="2.76"/><line class="cls-35" x1="142.93" y1="169.34" x2="142.93" y2="167.48"/><line class="cls-35" x1="144.93" y1="169.34" x2="144.93" y2="167.48"/><path class="cls-36" d="M160.71,246.23a2.09,2.09,0,1,1,2.09,2.09A2.08,2.08,0,0,1,160.71,246.23Z" transform="translate(-32.17 -61.51)"/><path class="cls-36" d="M158.62,246.23a2.09,2.09,0,1,1,2.09,2.09A2.08,2.08,0,0,1,158.62,246.23Z" transform="translate(-32.17 -61.51)"/><line class="cls-35" x1="128.54" y1="182.6" x2="128.54" y2="180.74"/><line class="cls-35" x1="130.63" y1="182.6" x2="130.63" y2="180.74"/><path class="cls-36" d="M152.8,220.76a.41.41,0,0,0-.78,0c-1.41,5.18-5.88,23.18.39,23.18S154.21,225.94,152.8,220.76Z" transform="translate(-32.17 -61.51)"/><path class="cls-36" d="M152.81,222.17a.4.4,0,0,0-.8,0c-.82,6.07-2.39,20,.4,20S153.63,228.24,152.81,222.17Z" transform="translate(-32.17 -61.51)"/><path class="cls-37" d="M160.12,224.7c.55-.42,1,.52,1,.52s.48-.94,1-.52c0,0,.58.53-1,1.74C159.54,225.23,160.12,224.7,160.12,224.7Z" transform="translate(-32.17 -61.51)"/><path class="cls-37" d="M162.84,224.7c.55-.42,1,.52,1,.52s.48-.94,1-.52c0,0,.58.53-1,1.74C162.26,225.23,162.84,224.7,162.84,224.7Z" transform="translate(-32.17 -61.51)"/><path class="cls-13" d="M159.92,227.82c-.22.05-.28.78-.29,1a.12.12,0,0,1-.1.11c-.24,0-.95.12-1,.35s.65.49.88.57a.11.11,0,0,1,.08.13c0,.24-.17,1,0,1.09s.65-.52.8-.71a.11.11,0,0,1,.15,0c.22.11.88.49,1,.32s-.28-.81-.42-1a.14.14,0,0,1,0-.16c.18-.16.71-.64.59-.84s-.82,0-1.06,0a.1.1,0,0,1-.13-.06C160.43,228.43,160.15,227.77,159.92,227.82Z" transform="translate(-32.17 -61.51)"/><path class="cls-13" d="M164.38,227.81c-.23,0-.53.64-.62.86a.11.11,0,0,1-.13.07c-.24-.05-.94-.21-1,0s.45.68.63.83a.11.11,0,0,1,0,.15c-.12.22-.49.88-.32,1s.78-.26,1-.4a.12.12,0,0,1,.15,0c.17.19.66.77.87.66s0-.86-.05-1.1a.12.12,0,0,1,.07-.14c.22-.09.88-.36.84-.59s-.77-.29-1-.32a.11.11,0,0,1-.11-.1C164.65,228.55,164.61,227.84,164.38,227.81Z" transform="translate(-32.17 -61.51)"/><path class="cls-12" d="M168.45,222.27a.4.4,0,0,1-.32-.47.41.41,0,0,1,.47-.33.4.4,0,0,1,.31.48A.4.4,0,0,1,168.45,222.27Z" transform="translate(-32.17 -61.51)"/><path class="cls-5" d="M168.28,223.2a.21.21,0,0,1-.16-.24.2.2,0,0,1,.23-.17.21.21,0,0,1,.16.24A.21.21,0,0,1,168.28,223.2Z" transform="translate(-32.17 -61.51)"/><polygon class="cls-2" points="136.39 162.43 136.82 160.04 136.04 159.88 135.6 162.29 136.39 162.43"/><path class="cls-12" d="M168,224.68a.41.41,0,0,1-.32-.47.39.39,0,0,1,.46-.33.4.4,0,0,1,.33.46A.41.41,0,0,1,168,224.68Z" transform="translate(-32.17 -61.51)"/><path class="cls-5" d="M167.87,225.6a.19.19,0,0,1-.16-.23.21.21,0,0,1,.23-.17.2.2,0,0,1,.16.24A.2.2,0,0,1,167.87,225.6Z" transform="translate(-32.17 -61.51)"/><polygon class="cls-2" points="135.99 164.84 136.39 162.43 135.6 162.29 135.2 164.71 135.99 164.84"/><path class="cls-12" d="M167.64,227.09a.41.41,0,0,1-.33-.46.4.4,0,0,1,.46-.34.41.41,0,0,1,.33.46A.4.4,0,0,1,167.64,227.09Z" transform="translate(-32.17 -61.51)"/><path class="cls-5" d="M167.51,228a.2.2,0,1,1,.23-.17A.2.2,0,0,1,167.51,228Z" transform="translate(-32.17 -61.51)"/><polygon class="cls-2" points="135.65 167.25 135.99 164.84 135.2 164.71 134.85 167.14 135.65 167.25"/><path class="cls-12" d="M167.31,229.51a.4.4,0,1,1,.45-.35A.4.4,0,0,1,167.31,229.51Z" transform="translate(-32.17 -61.51)"/><path class="cls-5" d="M167.2,230.45a.21.21,0,0,1,.05-.41.19.19,0,0,1,.17.23A.2.2,0,0,1,167.2,230.45Z" transform="translate(-32.17 -61.51)"/><path class="cls-2" d="M167.52,231.17l.14-1.2.16-1.21-.8-.11-.15,1.22-.14,1.22Z" transform="translate(-32.17 -61.51)"/><path class="cls-12" d="M167,231.94a.4.4,0,0,1-.36-.44.4.4,0,1,1,.8.08A.4.4,0,0,1,167,231.94Z" transform="translate(-32.17 -61.51)"/><path class="cls-5" d="M167,232.88a.21.21,0,0,1-.19-.22.2.2,0,1,1,.4,0A.2.2,0,0,1,167,232.88Z" transform="translate(-32.17 -61.51)"/><path class="cls-2" d="M167.3,233.59l.1-1.21.12-1.21-.79-.08s-.06.61-.13,1.22l-.1,1.23Z" transform="translate(-32.17 -61.51)"/><path class="cls-12" d="M166.85,234.38a.41.41,0,0,1,.05-.82.41.41,0,0,1,.37.44A.4.4,0,0,1,166.85,234.38Z" transform="translate(-32.17 -61.51)"/><path class="cls-5" d="M166.8,235.31a.2.2,0,1,1,0-.4.2.2,0,0,1,0,.4Z" transform="translate(-32.17 -61.51)"/><path class="cls-2" d="M167.18,236s0-.6,0-1.21l.08-1.21-.8-.05-.08,1.22c0,.62,0,1.24,0,1.24Z" transform="translate(-32.17 -61.51)"/><path class="cls-12" d="M166.77,236.82a.4.4,0,0,1-.4-.41.4.4,0,1,1,.8,0A.4.4,0,0,1,166.77,236.82Z" transform="translate(-32.17 -61.51)"/><path class="cls-5" d="M166.79,237.76a.21.21,0,0,1-.21-.2.19.19,0,0,1,.19-.21.22.22,0,0,1,.21.2A.21.21,0,0,1,166.79,237.76Z" transform="translate(-32.17 -61.51)"/><path class="cls-2" d="M167.22,238.42s0-.6-.05-1.2,0-1.21,0-1.21h-.8s0,.61,0,1.23,0,1.24,0,1.24Z" transform="translate(-32.17 -61.51)"/><path class="cls-12" d="M166.9,239.26a.41.41,0,1,1-.08-.81.4.4,0,0,1,.43.37A.41.41,0,0,1,166.9,239.26Z" transform="translate(-32.17 -61.51)"/><path class="cls-5" d="M167.05,240.18a.19.19,0,0,1-.23-.16.2.2,0,0,1,.15-.24.21.21,0,0,1,.24.16A.21.21,0,0,1,167.05,240.18Z" transform="translate(-32.17 -61.51)"/><path class="cls-2" d="M167.61,240.72a8.67,8.67,0,0,1-.26-1.12c-.09-.58-.13-1.18-.13-1.18l-.8.05s0,.63.14,1.25a9,9,0,0,0,.29,1.26Z" transform="translate(-32.17 -61.51)"/><path class="cls-12" d="M167.58,241.58a.39.39,0,0,1-.56-.18.4.4,0,0,1,.21-.55.42.42,0,0,1,.52.21A.42.42,0,0,1,167.58,241.58Z" transform="translate(-32.17 -61.51)"/><path class="cls-5" d="M168.3,242.15a.18.18,0,0,1-.28.1.18.18,0,0,1-.08-.28.23.23,0,0,1,.26-.08A.24.24,0,0,1,168.3,242.15Z" transform="translate(-32.17 -61.51)"/><path class="cls-2" d="M168.84,241.76a.7.7,0,0,1-.73-.17,1.78,1.78,0,0,1-.37-.55l-.13-.32-.76.26s.07.16.16.39a2.49,2.49,0,0,0,.57.82,2.14,2.14,0,0,0,.5.32,4.07,4.07,0,0,0,.52.09,1.76,1.76,0,0,0,.52-.09Z" transform="translate(-32.17 -61.51)"/><path class="cls-12" d="M169.59,241.62a.37.37,0,0,1,0,.61c-.23.19-.55.11-.6-.1a.48.48,0,0,1,.08-.51A.46.46,0,0,1,169.59,241.62Z" transform="translate(-32.17 -61.51)"/><path class="cls-5" d="M170,240.79a.18.18,0,0,1,.11.26.19.19,0,0,1-.26.11.2.2,0,0,1-.11-.26A.21.21,0,0,1,170,240.79Z" transform="translate(-32.17 -61.51)"/><path class="cls-2" d="M169.82,240a5.38,5.38,0,0,1-.37,1.06c-.06.12-.14.22-.2.33s-.14.14-.2.21l-.21.13.28.75.12-.06a1.78,1.78,0,0,0,.32-.2,3.75,3.75,0,0,0,.33-.35c.09-.14.19-.29.27-.44a5,5,0,0,0,.33-.85,3,3,0,0,0,.11-.39Z" transform="translate(-32.17 -61.51)"/><path class="cls-12" d="M170.37,239.33a.4.4,0,0,1,.32.48.39.39,0,0,1-.48.31.4.4,0,0,1-.31-.47A.41.41,0,0,1,170.37,239.33Z" transform="translate(-32.17 -61.51)"/><path class="cls-5" d="M170.49,238.4a.2.2,0,0,1,.18.22.19.19,0,0,1-.22.18.2.2,0,0,1,0-.4Z" transform="translate(-32.17 -61.51)"/><path class="cls-2" d="M170.15,237.68s0,.6-.12,1.19-.21,1.16-.21,1.16l.78.19s.14-.62.23-1.24.12-1.24.12-1.24Z" transform="translate(-32.17 -61.51)"/><path class="cls-12" d="M170.6,236.9a.4.4,0,0,1,.38.43.4.4,0,1,1-.8-.05A.4.4,0,0,1,170.6,236.9Z" transform="translate(-32.17 -61.51)"/><path class="cls-5" d="M170.63,236a.2.2,0,0,1,.2.21.22.22,0,0,1-.21.2.21.21,0,0,1,0-.41Z" transform="translate(-32.17 -61.51)"/><path class="cls-2" d="M170.24,235.27l0,1.21c0,.6-.07,1.2-.07,1.2l.8.06s.05-.62.07-1.24l0-1.23Z" transform="translate(-32.17 -61.51)"/><path class="cls-12" d="M170.63,234.45a.41.41,0,0,1,.41.41.4.4,0,1,1-.41-.41Z" transform="translate(-32.17 -61.51)"/><path class="cls-5" d="M170.61,233.52a.2.2,0,0,1,.21.19.2.2,0,0,1-.2.21.19.19,0,0,1-.2-.2A.19.19,0,0,1,170.61,233.52Z" transform="translate(-32.17 -61.51)"/><path class="cls-2" d="M170.19,232.84l0,1.21c0,.61,0,1.22,0,1.22h.8s0-.62,0-1.23,0-1.23,0-1.23Z" transform="translate(-32.17 -61.51)"/><path class="cls-12" d="M170.55,232a.41.41,0,0,1,0,.82.42.42,0,0,1-.42-.39A.4.4,0,0,1,170.55,232Z" transform="translate(-32.17 -61.51)"/><path class="cls-5" d="M170.5,231.08a.2.2,0,0,1,0,.4.2.2,0,0,1-.21-.19A.19.19,0,0,1,170.5,231.08Z" transform="translate(-32.17 -61.51)"/><path class="cls-2" d="M170.05,230.41l.08,1.22.06,1.21.8,0-.06-1.23-.08-1.22Z" transform="translate(-32.17 -61.51)"/><path class="cls-12" d="M170.39,229.57a.41.41,0,0,1,.43.38.41.41,0,0,1-.37.44.41.41,0,0,1-.06-.82Z" transform="translate(-32.17 -61.51)"/><path class="cls-5" d="M170.32,228.64a.2.2,0,0,1,0,.4.2.2,0,0,1-.22-.18A.21.21,0,0,1,170.32,228.64Z" transform="translate(-32.17 -61.51)"/><polygon class="cls-2" points="137.69 166.47 137.88 168.9 138.68 168.84 138.48 166.4 137.69 166.47"/><path class="cls-12" d="M170.18,227.14a.41.41,0,1,1-.36.44A.4.4,0,0,1,170.18,227.14Z" transform="translate(-32.17 -61.51)"/><path class="cls-5" d="M170.08,226.21a.2.2,0,1,1,0,.4.21.21,0,0,1-.22-.18A.2.2,0,0,1,170.08,226.21Z" transform="translate(-32.17 -61.51)"/><polygon class="cls-2" points="137.44 164.05 137.69 166.47 138.48 166.4 138.24 163.96 137.44 164.05"/><path class="cls-12" d="M169.92,224.71a.41.41,0,0,1,.09.81.41.41,0,1,1-.09-.81Z" transform="translate(-32.17 -61.51)"/><path class="cls-5" d="M169.8,223.78a.22.22,0,0,1,.23.18.2.2,0,0,1-.18.22.19.19,0,0,1-.22-.17A.21.21,0,0,1,169.8,223.78Z" transform="translate(-32.17 -61.51)"/><polygon class="cls-2" points="137.15 161.63 137.44 164.05 138.24 163.96 137.95 161.53 137.15 161.63"/><path class="cls-12" d="M169.61,222.29a.4.4,0,0,1,.45.35.39.39,0,0,1-.34.45.4.4,0,0,1-.45-.35A.39.39,0,0,1,169.61,222.29Z" transform="translate(-32.17 -61.51)"/><path class="cls-5" d="M169.49,221.36a.19.19,0,0,1,.22.17.2.2,0,0,1-.17.23.19.19,0,0,1-.22-.17A.19.19,0,0,1,169.49,221.36Z" transform="translate(-32.17 -61.51)"/><polygon class="cls-2" points="136.82 159.22 137.15 161.63 137.95 161.53 137.62 159.1 136.82 159.22"/><rect class="cls-38" x="162.29" y="261.71" width="4.28" height="39.89" transform="translate(-149.39 384.58) rotate(-90)"/><rect class="cls-38" x="162.34" y="235.08" width="4.28" height="44.24" transform="translate(-124.89 360.16) rotate(-90)"/><polygon class="cls-38" points="155.75 240.39 159.86 240.39 147.19 194.92 142.13 194.19 155.75 240.39"/><polygon class="cls-38" points="108.51 240.39 104.41 240.39 117.07 194.92 122.14 194.19 108.51 240.39"/><rect class="cls-13" x="139.02" y="253.31" width="50.55" height="3.89" transform="translate(296.43 448.99) rotate(-180)"/><line class="cls-24" x1="154.06" y1="216.94" x2="300.73" y2="216.94"/><path class="cls-5" d="M209.56,277.8s5.49,17.08,12.39,17.08a4.57,4.57,0,0,0,1.16-.16,7.26,7.26,0,0,0,2.17-1,12.73,12.73,0,0,0,1.66-1.28A21.19,21.19,0,0,0,229,290.3a64.9,64.9,0,0,0,7.86-12.5Z" transform="translate(-32.17 -61.51)"/><path class="cls-12" d="M212.62,277.8a33.35,33.35,0,0,0,3.48,8.14,35.72,35.72,0,0,0,7,8.78,7.26,7.26,0,0,0,2.17-1c-1.45-2.21-4.11-5.59-6.14-9a63.9,63.9,0,0,1-3.37-6.89Z" transform="translate(-32.17 -61.51)"/><path class="cls-12" d="M218.76,277.8a33.35,33.35,0,0,0,3.48,8.14,40.64,40.64,0,0,0,4.7,6.5A21.19,21.19,0,0,0,229,290.3c-1.22-1.71-2.59-3.66-3.74-5.61a65.84,65.84,0,0,1-3.37-6.89Z" transform="translate(-32.17 -61.51)"/><path class="cls-15" d="M223.42,277.8s5.48,17.08,12.39,17.08,14.93-17.08,14.93-17.08Z" transform="translate(-32.17 -61.51)"/><path class="cls-39" d="M225.81,278.33c1,2.66,5.83,14.29,10.33,14.29s10.73-11.63,12.09-14.28" transform="translate(-32.17 -61.51)"/><path class="cls-29" d="M123.51,144.48a7.85,7.85,0,0,0,.3,1.49,2.35,2.35,0,0,1,.19,1.55,3.41,3.41,0,0,1-.78.92c-.52.54-.42,1.58-.65,2.28a6.9,6.9,0,0,1-1.26,2.38,3.82,3.82,0,0,1-4.22,1.27,5.09,5.09,0,0,1-2.47-3.33,14.24,14.24,0,0,1,.49-9c.73-2.08,2.6-5.19,5.3-4.51C123.48,138.3,123.2,141.81,123.51,144.48Z" transform="translate(-32.17 -61.51)"/><path class="cls-40" d="M78.83,261.45s1.65-28.09,2.91-34.72,6.48,2.61,6.48,2.61l1.7,32.11" transform="translate(-32.17 -61.51)"/><rect class="cls-10" x="74.77" y="261.45" width="19.19" height="14.27" rx="1.52" transform="translate(136.57 475.66) rotate(-180)"/><line class="cls-41" x1="43.34" y1="206.57" x2="60.77" y2="206.57"/><ellipse class="cls-13" cx="52.2" cy="206.57" rx="2.24" ry="1.12"/><path class="cls-29" d="M117.38,152.29c-.12,2.9-1.54,5.62-.84,8.5a2.28,2.28,0,0,1-1.36-.07,19,19,0,0,0-5-.42c.14-2.4-.19-5.52-.19-7.93C110.46,152.46,117.39,151.93,117.38,152.29Z" transform="translate(-32.17 -61.51)"/><path class="cls-29" d="M129.46,241.17c.2.62,3.46,33.21,6.53,53.12,0,0-1.78,5.84-3.61,4.4s-15-40.57-15.91-55.08C116,235.6,129.46,241.17,129.46,241.17Z" transform="translate(-32.17 -61.51)"/><path class="cls-29" d="M108.42,238.8c.09.64,0,30.93-1.31,55.49,0,0-3.4,1.8-5,.06S95,249,96.55,241.11,108.42,238.8,108.42,238.8Z" transform="translate(-32.17 -61.51)"/><path class="cls-29" d="M139.63,166s12,2.73,19.65-.84c1.53-.72,3.08-1.4,4.65-2,1.16-.45,2.33-.88,3.53-1.22a11.93,11.93,0,0,1,2.36-.49c.3,0,1-.08,1.17.21s-.17.49-.33.58a6.81,6.81,0,0,0-.84.56,10.47,10.47,0,0,1-1.93,1.15l-.54.24a1.45,1.45,0,0,1,.64.26.84.84,0,0,1,.2.76.66.66,0,0,1-.3.41,1.46,1.46,0,0,1,.42.19.81.81,0,0,1,.29.87c0,.09-.08.71-.27.66a.87.87,0,0,1,.53.5,1,1,0,0,1-.41,1.23,2.88,2.88,0,0,1-1.12.35,7.29,7.29,0,0,1-2.08.21c-1-.08-2.59-.6-3.37.27-1.13,1.26-15.88,7.07-25.58,4.44S139.63,166,139.63,166Z" transform="translate(-32.17 -61.51)"/><path class="cls-29" d="M90.7,178s-4,27.66-5.42,41c0,0-3.84,4.58-3.54,7.74s5.77,4.28,6.48,2.61.77-8.83.77-8.83S98,192.14,98,182.1,90.7,178,90.7,178Z" transform="translate(-32.17 -61.51)"/><path class="cls-5" d="M106.3,157.57s-11.81,2.3-15.41,19.68a15.64,15.64,0,0,0-.6,3.59l5.85,3.2s-.75,7.18-1.07,19.91c7.3,0,23.46,2.15,31.87,1.66.09-12.08.53-21.51,1.85-26.73,4.41-.25,13.23-1.37,13.23-1.37L142.6,166S128,161,124.68,160.22c-4.76-1-8.29-1.95-8.29-1.95Z" transform="translate(-32.17 -61.51)"/><path class="cls-9" d="M107.7,152.88a10.51,10.51,0,0,1,8.69-18c2.38.33,5.36,1.72,6.58,3.9a.21.21,0,0,1,0,.13c-.15.55-.94.67-1.37.84a3.85,3.85,0,0,0-1.62,1.09,8.11,8.11,0,0,0-1.66,3.82c-.38,2.06-.42,4.25-1.43,6.09a8.61,8.61,0,0,1-4.07,3.48c-.31.14-.55.66-.76.74-.4.15-1.21-.25-1.6-.39A8.35,8.35,0,0,1,107.7,152.88Z" transform="translate(-32.17 -61.51)"/><path class="cls-9" d="M109.21,151.5a10.88,10.88,0,0,0-2.75,2.9,23.37,23.37,0,0,0-3.52,5.53c-1.42,3.24-1.74,7.15,0,10.26a25.88,25.88,0,0,0,3.65,4.46,9.51,9.51,0,0,1,2.71,5c1.06.55,2.15,0,3-.89,1.59-1.68,1.7-3.62,2.17-5.75a10.92,10.92,0,0,0,.07-5.24c-.91-3.88-3.12-7.41-3.09-11.5,0-1.34,1.14-4.57-.83-5A1.85,1.85,0,0,0,109.21,151.5Z" transform="translate(-32.17 -61.51)"/><path class="cls-13" d="M111.29,152.7a5.44,5.44,0,0,0-2.33-1.33,1.5,1.5,0,0,0-1.43.18,1.38,1.38,0,0,0,0,1.63,3.63,3.63,0,0,0,3.17,1.61C112.15,154.82,112.26,153.63,111.29,152.7Z" transform="translate(-32.17 -61.51)"/><path class="cls-5" d="M116.4,301.3a1.26,1.26,0,0,1-.16.61h-15c-.12,0-.18-.3-.2-.61s0-.6,0-.68a15.37,15.37,0,0,1,.23-2.43c.08-.55.2-2.41.31-2.94s.17-1,.6-.9c1.59,1.57,3.64-1.27,5-.06a11.4,11.4,0,0,0,1.6,1.66c1.25,1.13,2.58,1.3,4.39,2.07,2.34,1,3.14,2.33,3.27,3A1.58,1.58,0,0,1,116.4,301.3Z" transform="translate(-32.17 -61.51)"/><path class="cls-9" d="M116.4,301.08a1.19,1.19,0,0,1-.16.6h-15c-.12,0-.18-.29-.2-.6Z" transform="translate(-32.17 -61.51)"/><path class="cls-40" d="M109.11,296.27l-.69.91" transform="translate(-32.17 -61.51)"/><path class="cls-40" d="M110,296.81l-.7.91" transform="translate(-32.17 -61.51)"/><path class="cls-40" d="M111,297.14l-.69.91" transform="translate(-32.17 -61.51)"/><path class="cls-40" d="M111.94,297.49l-.69.91" transform="translate(-32.17 -61.51)"/><path class="cls-40" d="M101.72,296.63a4.82,4.82,0,0,1,1.89,4" transform="translate(-32.17 -61.51)"/><path class="cls-40" d="M113.94,298.48a3.17,3.17,0,0,0-1.41,2.29" transform="translate(-32.17 -61.51)"/><path class="cls-5" d="M145.28,301.3a1.26,1.26,0,0,1-.16.61h-15c-.13,0-.19-.3-.21-.61s0-.6,0-.68a15.37,15.37,0,0,1,.23-2.43c.08-.55.2-2.41.31-2.94s.17-1,.6-.9c1.59,1.57,3.64-1.27,5-.06a11.4,11.4,0,0,0,1.6,1.66c1.25,1.13,2.58,1.3,4.39,2.07,2.34,1,3.14,2.33,3.27,3A1.58,1.58,0,0,1,145.28,301.3Z" transform="translate(-32.17 -61.51)"/><path class="cls-9" d="M145.28,301.08a1.19,1.19,0,0,1-.16.6h-15c-.13,0-.19-.29-.21-.6Z" transform="translate(-32.17 -61.51)"/><path class="cls-40" d="M138,296.27l-.69.91" transform="translate(-32.17 -61.51)"/><path class="cls-40" d="M138.85,296.81l-.7.91" transform="translate(-32.17 -61.51)"/><path class="cls-40" d="M139.83,297.14l-.69.91" transform="translate(-32.17 -61.51)"/><path class="cls-40" d="M140.82,297.49l-.69.91" transform="translate(-32.17 -61.51)"/><path class="cls-40" d="M130.6,296.63a4.82,4.82,0,0,1,1.89,4" transform="translate(-32.17 -61.51)"/><path class="cls-40" d="M142.82,298.48a3.17,3.17,0,0,0-1.41,2.29" transform="translate(-32.17 -61.51)"/><polygon class="cls-15" points="62.91 142.43 60.97 183.17 101.27 183.17 94.77 144.1 62.91 142.43"/><path class="cls-40" d="M98,170.27a59.59,59.59,0,0,0-1.83,12.6" transform="translate(-32.17 -61.51)"/><path class="cls-40" d="M126.38,182a116.78,116.78,0,0,1-5.17,16.56" transform="translate(-32.17 -61.51)"/><path class="cls-40" d="M97.64,190.34a52.14,52.14,0,0,0,3.4,9.39" transform="translate(-32.17 -61.51)"/><line class="cls-40" x1="91.63" y1="144.65" x2="91.78" y2="145.61"/><line class="cls-42" x1="92.09" y1="147.48" x2="97.44" y2="180.2"/><line class="cls-40" x1="97.59" y1="181.13" x2="97.75" y2="182.1"/><path class="cls-9" d="M121.06,142.73a6.69,6.69,0,0,0-1.12.68c-.22.17-.66.66-.09.65a3.82,3.82,0,0,0,1.51-.44.86.86,0,0,0,.47-.47C122,142.65,121.37,142.58,121.06,142.73Z" transform="translate(-32.17 -61.51)"/><path class="cls-9" d="M121.64,145.61c-.31.16-.45-.34-.45-.59s.24-.79.55-.65.21.64.16.86a.56.56,0,0,1-.19.33Z" transform="translate(-32.17 -61.51)"/><path class="cls-43" d="M119.69,150a5.84,5.84,0,0,0,1.62,1.39" transform="translate(-32.17 -61.51)"/><path class="cls-19" d="M603,266.28c0,9.59-1.26,16.55-3.58,22.67-.07.22-.16.43-.25.65-.17.46-.35.9-.54,1.34-.1.24-.2.47-.31.69-.18.43-.39.86-.58,1.28l-.32.64c-.33.7-.69,1.41-1.08,2.1s-.61,1.14-.94,1.7c-.84,1.5-1.76,3-2.74,4.52H581.49c-1-1.58-2-3.12-2.83-4.65-.32-.56-.62-1.13-.91-1.68s-.69-1.3-1-2c-.11-.21-.21-.43-.31-.64-.19-.4-.39-.8-.57-1.22l-.29-.69c-.2-.46-.4-.93-.58-1.4-.09-.22-.18-.44-.26-.66-2.33-6.14-3.59-13.09-3.59-22.7,0-10,3-15.86,5.38-18.94a6.14,6.14,0,0,0,.63-6.41,36.22,36.22,0,0,1-2.79-10.68h25.39a36.23,36.23,0,0,1-2.81,10.68,6.16,6.16,0,0,0,.65,6.41C600,250.42,603,256.26,603,266.28Z" transform="translate(-32.17 -61.51)"/><path class="cls-5" d="M599.37,289c-.07.22-.16.43-.25.65a2.3,2.3,0,0,1-1-.72,1.13,1.13,0,0,0-2,0,1.83,1.83,0,0,1-3,0,1.26,1.26,0,0,0-1-.58,1.3,1.3,0,0,0-1,.58,1.89,1.89,0,0,1-1.5.8,1.91,1.91,0,0,1-1.51-.8,1.26,1.26,0,0,0-1-.58,1.28,1.28,0,0,0-1,.58,1.92,1.92,0,0,1-1.51.8,1.89,1.89,0,0,1-1.51-.8,1.14,1.14,0,0,0-2,0,2,2,0,0,1-1.51.8,1.89,1.89,0,0,1-1.51-.8c-.31-.32-.53-.58-1-.58a1.28,1.28,0,0,0-1,.58,2.11,2.11,0,0,1-1.11.76c-.09-.22-.18-.44-.26-.66a1.34,1.34,0,0,0,.86-.57,1.82,1.82,0,0,1,3,0,1.26,1.26,0,0,0,1,.58,1.24,1.24,0,0,0,1-.58,1.81,1.81,0,0,1,3,0,1.15,1.15,0,0,0,2,0,1.9,1.9,0,0,1,1.51-.81,2,2,0,0,1,1.51.81,1.13,1.13,0,0,0,2,0,1.81,1.81,0,0,1,3,0,1.24,1.24,0,0,0,1,.58,1.26,1.26,0,0,0,1-.58,1.8,1.8,0,0,1,3,0A1.35,1.35,0,0,0,599.37,289Z" transform="translate(-32.17 -61.51)"/><path class="cls-5" d="M575.57,291l0,0a1.82,1.82,0,0,1,3,0,1.27,1.27,0,0,0,1,.57,1.25,1.25,0,0,0,1-.57,1.81,1.81,0,0,1,3,0,1.16,1.16,0,0,0,2,0,1.9,1.9,0,0,1,1.51-.81,2,2,0,0,1,1.51.81,1.14,1.14,0,0,0,2,0,1.81,1.81,0,0,1,3,0,1.25,1.25,0,0,0,1,.57,1.27,1.27,0,0,0,1-.57,1.89,1.89,0,0,1,1.5-.81,1.85,1.85,0,0,1,1.44.73c-.1.24-.2.47-.31.69l-.14-.15a1.13,1.13,0,0,0-2,0,1.81,1.81,0,0,1-3,0,1.26,1.26,0,0,0-1-.58,1.3,1.3,0,0,0-1,.58,1.8,1.8,0,0,1-3,0,1.26,1.26,0,0,0-1-.58,1.28,1.28,0,0,0-1,.58,1.93,1.93,0,0,1-1.51.81,1.9,1.9,0,0,1-1.51-.81,1.14,1.14,0,0,0-2,0,2,2,0,0,1-1.51.81,1.9,1.9,0,0,1-1.51-.81c-.31-.32-.53-.58-1-.58a1.28,1.28,0,0,0-1,.58,2.77,2.77,0,0,1-.24.25Z" transform="translate(-32.17 -61.51)"/><path class="cls-5" d="M597.69,292.91l-.32.64a.85.85,0,0,0-.23,0,1.25,1.25,0,0,0-1,.57,1.81,1.81,0,0,1-3,0,1.25,1.25,0,0,0-1-.57,1.29,1.29,0,0,0-1,.57,1.89,1.89,0,0,1-1.5.81,1.91,1.91,0,0,1-1.51-.81,1.25,1.25,0,0,0-1-.57,1.27,1.27,0,0,0-1,.57,1.93,1.93,0,0,1-1.51.81,1.9,1.9,0,0,1-1.51-.81,1.15,1.15,0,0,0-2,0,2,2,0,0,1-1.51.81,1.9,1.9,0,0,1-1.51-.81,1.31,1.31,0,0,0-1-.57,1,1,0,0,0-.36.07c-.11-.21-.21-.43-.31-.64a1.83,1.83,0,0,1,.67-.12,1.93,1.93,0,0,1,1.52.8,1.28,1.28,0,0,0,1,.58,1.26,1.26,0,0,0,1-.58,1.83,1.83,0,0,1,3,0,1.15,1.15,0,0,0,2,0,1.89,1.89,0,0,1,1.51-.8,2,2,0,0,1,1.51.8,1.13,1.13,0,0,0,2,0,1.83,1.83,0,0,1,3,0,1.26,1.26,0,0,0,1,.58,1.28,1.28,0,0,0,1-.58,1.89,1.89,0,0,1,1.5-.8A1.63,1.63,0,0,1,597.69,292.91Z" transform="translate(-32.17 -61.51)"/><path class="cls-5" d="M596.29,295.65c-.29.57-.61,1.14-.94,1.7a1.52,1.52,0,0,1-.71.16,1.94,1.94,0,0,1-1.51-.82,1.25,1.25,0,0,0-1-.57,1.29,1.29,0,0,0-1,.57,1.9,1.9,0,0,1-1.5.82,1.92,1.92,0,0,1-1.51-.82,1.25,1.25,0,0,0-1-.57,1.27,1.27,0,0,0-1,.57,1.94,1.94,0,0,1-1.51.82,1.9,1.9,0,0,1-1.51-.82,1.15,1.15,0,0,0-2,0,2,2,0,0,1-1.51.82,1.66,1.66,0,0,1-1-.29c-.32-.56-.62-1.13-.91-1.68a2.47,2.47,0,0,1,.87.69,1.28,1.28,0,0,0,1,.58,1.26,1.26,0,0,0,1-.58,1.83,1.83,0,0,1,3,0,1.15,1.15,0,0,0,2,0,1.89,1.89,0,0,1,1.51-.8,2,2,0,0,1,1.51.8,1.13,1.13,0,0,0,2,0,1.83,1.83,0,0,1,3,0,1.26,1.26,0,0,0,1,.58,1.28,1.28,0,0,0,1-.58A3.11,3.11,0,0,1,596.29,295.65Z" transform="translate(-32.17 -61.51)"/><rect class="cls-10" x="583.83" y="160.3" width="4.82" height="80.05"/><rect class="cls-10" x="467.16" y="160.3" width="4.82" height="80.05"/><rect class="cls-10" x="460.61" y="156.78" width="136.03" height="4.78"/><line class="cls-44" x1="590.83" y1="41.66" x2="590.83" y2="156.78"/><circle class="cls-13" cx="476.53" cy="62.72" r="2.33"/><path class="cls-20" d="M510,122.44a11.11,11.11,0,0,0-1.68,1.28,1.53,1.53,0,0,0-.5.78.64.64,0,0,0,.43.74.37.37,0,0,0,.21,0,.44.44,0,0,0,.14-.13,2.2,2.2,0,0,0,.39-1.15,13.45,13.45,0,0,0,.11-1.9" transform="translate(-32.17 -61.51)"/><polygon class="cls-9" points="479.28 59.55 478.41 61.39 476.25 60.39 476.98 58.53 479.28 59.55"/><circle class="cls-13" cx="503.99" cy="71.79" r="2.33"/><path class="cls-20" d="M537.11,131.29a11,11,0,0,0-1.4,1.57,1.5,1.5,0,0,0-.34.87.64.64,0,0,0,.57.64.31.31,0,0,0,.19-.06.57.57,0,0,0,.12-.15,2.27,2.27,0,0,0,.16-1.21,11.83,11.83,0,0,0-.27-1.88" transform="translate(-32.17 -61.51)"/><polygon class="cls-9" points="506.07 68.14 505.58 70.11 503.26 69.55 503.62 67.58 506.07 68.14"/><circle class="cls-13" cx="533.37" cy="74.07" r="2.33"/><path class="cls-20" d="M565.85,133.38a11.42,11.42,0,0,0-.87,1.92,1.47,1.47,0,0,0-.07.92.63.63,0,0,0,.73.45.3.3,0,0,0,.17-.12.36.36,0,0,0,.07-.18,2.4,2.4,0,0,0-.2-1.2,13.49,13.49,0,0,0-.81-1.72" transform="translate(-32.17 -61.51)"/><polygon class="cls-9" points="534.29 69.97 534.4 72 532.02 72.15 531.78 70.16 534.29 69.97"/><circle class="cls-13" cx="559.35" cy="69.17" r="2.33"/><path class="cls-20" d="M591.44,128.46a13,13,0,0,0-.53,2,1.55,1.55,0,0,0,.1.93.63.63,0,0,0,.79.31.32.32,0,0,0,.18-.33,2.18,2.18,0,0,0-.4-1.15,13.18,13.18,0,0,0-1.09-1.56" transform="translate(-32.17 -61.51)"/><polygon class="cls-9" points="559.54 64.98 560 66.96 557.68 67.51 557.11 65.6 559.54 64.98"/><circle class="cls-13" cx="581.21" cy="60.31" r="2.33"/><path class="cls-20" d="M612.86,119.66a11.38,11.38,0,0,0-.11,2.1,1.51,1.51,0,0,0,.27.89.64.64,0,0,0,.84.15.33.33,0,0,0,.12-.17.41.41,0,0,0,0-.19,2.28,2.28,0,0,0-.63-1,13,13,0,0,0-1.38-1.3" transform="translate(-32.17 -61.51)"/><polygon class="cls-9" points="580.56 56.16 581.4 58.01 579.24 59.02 578.29 57.26 580.56 56.16"/><path class="cls-45" d="M623.38,111.75s-29.35,20.18-65,19.89-64.61-19.89-64.61-19.89" transform="translate(-32.17 -61.51)"/><line class="cls-44" x1="461.8" y1="41.66" x2="461.8" y2="156.78"/><path class="cls-45" d="M494.11,112.45A17,17,0,0,0,492,129.18c1.15,2.71,3,5.1,4,7.88a13.2,13.2,0,0,1,.63,6c-.48,3.9-2.66,7.37-3.76,11.14a23.71,23.71,0,0,0-.19,11.89c1.32,5.65,4.43,11.41,2.62,16.92a68.94,68.94,0,0,1-3.1,7.56,13,13,0,0,0-1.46,4.54,12.71,12.71,0,0,0,.37,3.3,28.78,28.78,0,0,0,2.15,7.33,15.8,15.8,0,0,1,1.43,3.1,3.12,3.12,0,0,1-.74,3.16c-2.52,2.13-2.56,5.94-2.71,9.24a4.72,4.72,0,0,0,.48,2.73,3.62,3.62,0,0,0,3,1.57,10.83,10.83,0,0,0,3.46-.58c.58-.17,1.26-.45,1.35-1" transform="translate(-32.17 -61.51)"/><rect class="cls-5" x="489.88" y="159.17" width="73.04" height="18.13"/><text class="cls-46" transform="translate(502.43 174.06)">SALE</text><line class="cls-45" x1="561.34" y1="161.26" x2="561.34" y2="156.78"/><line class="cls-45" x1="491.61" y1="161.26" x2="491.61" y2="156.78"/><path class="cls-47" d="M616.51,142.77l-.2,1.12c-.11.71-.27,1.74-.38,3a18.54,18.54,0,0,0,0,4.2,5.39,5.39,0,0,0,.74,2.17l.16.24.2.2a2.13,2.13,0,0,0,.45.34,4.5,4.5,0,0,0,.51.2c.19,0,.43,0,.59.06a2.16,2.16,0,0,0,1.9-1.06,5.49,5.49,0,0,0,.68-2.19,18.86,18.86,0,0,0-.05-4.21c-.14-1.23-.31-2.25-.44-3s-.22-1.12-.22-1.12c-.48-2.38-1-4.52-1.44-6.07a23.35,23.35,0,0,1-.63-2.53,12.47,12.47,0,0,1,.9,2.45c.48,1.53,1.08,3.68,1.57,6.07,0,0,.09.41.21,1.13s.31,1.75.44,3a19,19,0,0,1,.06,4.3,5.91,5.91,0,0,1-.74,2.35,2.59,2.59,0,0,1-.94.92,2.44,2.44,0,0,1-.63.25c-.22,0-.44,0-.66.08a5.89,5.89,0,0,1-.65-.07,3.61,3.61,0,0,1-.65-.24,2.36,2.36,0,0,1-.54-.4l-.23-.23-.19-.27a6.09,6.09,0,0,1-.8-2.34,18.72,18.72,0,0,1,0-4.29c.11-1.25.26-2.29.38-3l.19-1.12a62.18,62.18,0,0,1,1.46-6.11,13.55,13.55,0,0,1,.85-2.46,20.73,20.73,0,0,1-.58,2.54C617.46,138.23,617,140.38,616.51,142.77Z" transform="translate(-32.17 -61.51)"/><path class="cls-47" d="M617.28,140.63l-.12.84c-.07.53-.17,1.3-.24,2.22a18.12,18.12,0,0,0,0,3.13,5.35,5.35,0,0,0,.39,1.67,2.09,2.09,0,0,0,.48.68,1,1,0,0,0,.33.19,1.12,1.12,0,0,0,.41.1c.53.07.94-.39,1.12-.93a6.16,6.16,0,0,0,.32-1.69,21.11,21.11,0,0,0-.08-3.14c-.16-1.84-.38-3.06-.38-3.06-.27-1.79-.58-3.41-.79-4.59a11.52,11.52,0,0,1-.3-1.92A7.58,7.58,0,0,1,619,136c.29,1.17.64,2.78.92,4.59,0,0,.21,1.22.38,3.08a20.61,20.61,0,0,1,.07,3.2,6.13,6.13,0,0,1-.33,1.81,2.16,2.16,0,0,1-.54.85,1.25,1.25,0,0,1-1,.33,1.63,1.63,0,0,1-1-.38,2.38,2.38,0,0,1-.58-.81,6,6,0,0,1-.43-1.8,18.93,18.93,0,0,1,0-3.2c.08-.94.17-1.71.25-2.25l.12-.84c.28-1.81.64-3.42.94-4.59a8.23,8.23,0,0,1,.59-1.85,10,10,0,0,1-.31,1.92C617.88,137.22,617.56,138.84,617.28,140.63Z" transform="translate(-32.17 -61.51)"/><rect class="cls-5" x="486.04" y="205.05" width="9.64" height="10.97"/><path class="cls-48" d="M528.41,266.34a8.5,8.5,0,0,0,1.51-1.66,4.31,4.31,0,0,0,.86-1.55,1.87,1.87,0,0,0-.34-1.68,2,2,0,0,0-2.39-.18,5.77,5.77,0,0,0-1.72,1.92,13.51,13.51,0,0,0,1.06-5.17,2.15,2.15,0,0,0-.93-1.84,1.64,1.64,0,0,0-1.75.27,3.17,3.17,0,0,0-1,1.59,6.57,6.57,0,0,0-.14,3.38,4.58,4.58,0,0,0-.82-2.24,1.9,1.9,0,0,0-2.06-.71,1.81,1.81,0,0,0-1.06,1.75,3,3,0,0,0,.9,1.93,4.52,4.52,0,0,0-4.93-.66,2.65,2.65,0,0,0-1.2,1.09,1.48,1.48,0,0,0,.08,1.56,2.4,2.4,0,0,0,2,.59l1.56,0A3.83,3.83,0,0,0,515.7,267a1.89,1.89,0,0,0-.07,1,1,1,0,0,0,.65.71,1.56,1.56,0,0,0,1.22-.41l2.92-2a7.38,7.38,0,0,0-.41,1.6,2.43,2.43,0,0,0,.27,1.61,1.49,1.49,0,0,0,1.39.75,2,2,0,0,0,1.15-.67,5.65,5.65,0,0,0,1.52-2.88,1.79,1.79,0,0,0,.13,1.66,3,3,0,0,0,1.33,1.23,2.77,2.77,0,0,0,3-.29,1.76,1.76,0,0,0,.43-1.43A3,3,0,0,0,528.41,266.34Z" transform="translate(-32.17 -61.51)"/><path class="cls-8" d="M601.16,243.35a.52.52,0,0,0-.52.53c.05,2.3.1,11.57-2,17.51-2.36,6.82-6.12,12.28-7.17,18.78-.89,5.47-1.27,17-1.38,20.52a1,1,0,0,0,1,1.05h26.19a1,1,0,0,0,1-1.05c-.1-3.53-.49-15.05-1.37-20.52-1-6.5-4.81-12-7.18-18.78-2.05-5.94-2-15.21-2-17.51a.52.52,0,0,0-.52-.53Z" transform="translate(-32.17 -61.51)"/><path class="cls-49" d="M592.38,276.2a3.21,3.21,0,0,0,3.45,2,6.29,6.29,0,0,0,3.68-2.13,7.73,7.73,0,0,0,1.81-2.87,4.46,4.46,0,0,0-.13-3.33,1.16,1.16,0,0,0-.5-.59.92.92,0,0,0-1,.15,2.1,2.1,0,0,0-.59.84,8.26,8.26,0,0,0-.58,3.2,8.38,8.38,0,0,0,.36,2.68A5.19,5.19,0,0,0,601.1,279a4.39,4.39,0,0,0,3.51.49c1.72-.52,2.88-2.11,3.7-3.7a8.67,8.67,0,0,0,1.14-4.48,2.62,2.62,0,0,0-.35-1.23,1.28,1.28,0,0,0-1.08-.62c-.69,0-1.15.74-1.3,1.42A6.64,6.64,0,0,0,607,274a7.88,7.88,0,0,0,.76,1.88,4.6,4.6,0,0,0,7.9-.06" transform="translate(-32.17 -61.51)"/><rect class="cls-6" x="501.54" y="184.01" width="34.75" height="26.42"/><line class="cls-7" x1="529.55" y1="184.01" x2="529.55" y2="210.43"/><rect class="cls-5" x="503.88" y="185.95" width="5.64" height="9.51"/><line class="cls-7" x1="508.78" y1="187.22" x2="504.61" y2="187.22"/><line class="cls-7" x1="508.78" y1="188.43" x2="504.61" y2="188.43"/><line class="cls-7" x1="508.78" y1="189.64" x2="504.61" y2="189.64"/><line class="cls-7" x1="508.78" y1="190.85" x2="504.61" y2="190.85"/><line class="cls-7" x1="508.78" y1="192.05" x2="504.61" y2="192.05"/><line class="cls-7" x1="508.78" y1="193.26" x2="504.61" y2="193.26"/><rect class="cls-13" x="506.64" y="210.43" width="39.51" height="29.92"/><line class="cls-7" x1="538.48" y1="213.44" x2="538.48" y2="240.36"/><rect class="cls-50" x="517.63" y="214.47" width="6.82" height="3.29" rx="1.64"/><line class="cls-7" x1="546.15" y1="212.96" x2="506.64" y2="212.96"/><path class="cls-13" d="M619.3,265.78c.72-.55,3,1.16,3.75,1.74a.48.48,0,0,0,.59,0c.73-.61,2.83-2.52,3.58-2s-.24,3.18-.59,4.06a.48.48,0,0,0,.19.57c.83.51,3.39,2.08,3.13,2.95s-3.2.59-4.17.53a.48.48,0,0,0-.49.37c-.2.95-.79,3.89-1.69,3.9s-1.68-2.9-1.94-3.84a.47.47,0,0,0-.5-.34c-.94.1-3.74.45-4-.4s2.08-2.49,2.87-3a.45.45,0,0,0,.16-.56C619.79,268.85,618.57,266.33,619.3,265.78Z" transform="translate(-32.17 -61.51)"/><circle class="cls-1" cx="601.55" cy="212.42" r="6.42"/><circle class="cls-15" cx="610.68" cy="214.34" r="6.08"/><rect class="cls-6" x="581.48" y="212.42" width="39.3" height="27.94"/><polygon class="cls-5" points="605.85 211.82 614.27 211.82 614.27 223.29 610.06 220.18 605.85 223.29 605.85 211.82"/><polygon class="cls-15" points="582.95 211.38 592.4 211.38 592.4 225.44 587.67 222.33 582.95 225.44 582.95 211.38"/><line class="cls-7" x1="615.53" y1="212.42" x2="615.53" y2="240.36"/><path class="cls-29" d="M424.26,248.32a9.38,9.38,0,0,1,0,2c-.05,1.87-.12,3.73-.19,5.6q-.37,9.81-1,19.62c-.25,3.68-.53,7.37-.84,11.05-.16,1.93-.26,3.89-.52,5.81-.18,1.4-1.44,2-2.81,2a5,5,0,0,1-2.56-.81c-.9-.56-.82-2.31-.94-3.26-.22-1.78-.44-3.57-.64-5.35-.56-5-1.05-10-1.38-15.05a90.47,90.47,0,0,1-.13-14.16,13.56,13.56,0,0,1,.81-4C417,244.48,424.26,248.32,424.26,248.32Z" transform="translate(-32.17 -61.51)"/><path class="cls-29" d="M439.36,162.38c.13-.13,11.13,11.14,16.32,11.92s22.39-4.12,22.39-4.12,3.46-3.87,4.07-3.52-.53,2.09-.79,2.48a4.19,4.19,0,0,1,.89-.38c.4-.2.8-.39,1.21-.57a26.41,26.41,0,0,1,2.57-.95,1.1,1.1,0,0,1,.87,0,.21.21,0,0,1,.09.1c0,.07,0,.12-.07.17a5,5,0,0,1-1.18.86l-.66.38a1.17,1.17,0,0,0-.47.34c-.05.08.47-.12.49-.13l.87-.32a6,6,0,0,1,2.23-.58.25.25,0,0,1,.19.07c.06.09,0,.2-.06.29a5.43,5.43,0,0,1-2.17,1.32c-.09,0-1.24.51-1.17.59s.41.05.55,0l.87-.26c.32-.08,2-.63,2.09-.07,0,.28-.45.63-.68.75a10.81,10.81,0,0,1-1.39.47l-.73.21c-.12,0-.3,0-.41.08s-.16.22-.07.28a2,2,0,0,0,.77,0,16.27,16.27,0,0,1,1.71-.2c.37,0,.28.3.07.47a4.09,4.09,0,0,1-1.23.53,17.76,17.76,0,0,1-5.16,1.28,7.49,7.49,0,0,0-2.76.54c-.85.36-1.66.82-2.48,1.24a122.43,122.43,0,0,1-11.46,5.13c-3.51,1.33-7.6,2.91-11.43,2.59A18.84,18.84,0,0,1,441,177.27Z" transform="translate(-32.17 -61.51)"/><path class="cls-5" d="M431.29,156.93c3.79-3.54,14.16,3.7,22.42,15.87,0,0-3.47,6.76-8.15,8.58C445.56,181.38,424.25,163.49,431.29,156.93Z" transform="translate(-32.17 -61.51)"/><path class="cls-29" d="M441.53,248.29a9.16,9.16,0,0,1,.07,2c.06,1.86.11,3.73.15,5.59q.22,9.83.14,19.65c0,3.7-.08,7.39-.17,11.09-.05,1.93,0,3.89-.17,5.82-.1,1.41-1.32,2.09-2.68,2.15a5,5,0,0,1-2.61-.65c-.94-.51-1-2.26-1.13-3.2q-.51-2.64-1-5.3c-.86-5-1.65-9.94-2.28-14.94a90.4,90.4,0,0,1-1-14.13,13.69,13.69,0,0,1,.57-4.08C434.05,244.9,441.53,248.29,441.53,248.29Z" transform="translate(-32.17 -61.51)"/><path class="cls-12" d="M441.68,207.77s4.85,32.64,3.48,44.1c0,0-10.44,5.34-17.52,1.87s-5.09-45.33-5.09-45.33Z" transform="translate(-32.17 -61.51)"/><path class="cls-12" d="M415.8,209.53s-6.66,33.8-5,45.22c0,0,12.32,1.35,21.35-.7,7.69-1.75.1-45.16.1-45.16Z" transform="translate(-32.17 -61.51)"/><path class="cls-29" d="M437.53,138.64c.13.4,4.33,13.94-1.63,16s-9.34-3.38-9.34-3.38-3.88-8.23,1.09-12.59C430.34,136.28,437.53,138.64,437.53,138.64Z" transform="translate(-32.17 -61.51)"/><path class="cls-9" d="M437.68,138.59a11.56,11.56,0,0,0,3.15-1.75,4.07,4.07,0,0,0,1.57-3.12,3.69,3.69,0,0,0-3.56-3.28,5.56,5.56,0,0,0-4.5,2.41,2.23,2.23,0,0,0,.2-2.35,2,2,0,0,0-2-1.1,3.6,3.6,0,0,0-2.06,1.17,15.33,15.33,0,0,0-2.72,3.53,1.16,1.16,0,0,0-.43-1.26,1.58,1.58,0,0,0-1.31-.11,3.31,3.31,0,0,0-1.14.71,7.35,7.35,0,0,0-2.38,4.6,1.78,1.78,0,0,0-1.8,0,4.35,4.35,0,0,0-1.36,1.56,8.61,8.61,0,0,0,3.77,12,3,3,0,0,0,2.79.19,3,3,0,0,0,1.26-2.27,28.16,28.16,0,0,0,.1-4.21,7.52,7.52,0,0,1,.95-4.05,6.22,6.22,0,0,1,4.21-2.51A20.27,20.27,0,0,1,437.68,138.59Z" transform="translate(-32.17 -61.51)"/><path class="cls-29" d="M426.33,145.77a1.46,1.46,0,0,0-1.79-.17,1.7,1.7,0,0,0-.51,1.27,4.11,4.11,0,0,0,1.81,3.53,1.65,1.65,0,0,0,1.14.34,1.42,1.42,0,0,0,1-1.5A6.46,6.46,0,0,0,426.33,145.77Z" transform="translate(-32.17 -61.51)"/><path class="cls-29" d="M433.11,153s-2.41,2.66-1,9.85-7,1.94-7,1.94l.72-15.64Z" transform="translate(-32.17 -61.51)"/><path class="cls-5" d="M431.68,150.27a4.52,4.52,0,0,0,2.79,1s-.73,1.48-2,.9A1.53,1.53,0,0,1,431.68,150.27Z" transform="translate(-32.17 -61.51)"/><path class="cls-9" d="M437.74,143.83a1,1,0,0,1,.11.63.88.88,0,0,1-.06.36.35.35,0,0,1-.3.21.34.34,0,0,1-.29-.2,1,1,0,0,1-.06-.35c0-.17-.1-.61.05-.76A.38.38,0,0,1,437.74,143.83Z" transform="translate(-32.17 -61.51)"/><path class="cls-9" d="M432.54,144.06a1,1,0,0,1,.11.63.88.88,0,0,1-.06.36.37.37,0,0,1-.3.21.36.36,0,0,1-.29-.21.93.93,0,0,1-.06-.34c0-.17-.1-.62.05-.77S432.43,143.89,432.54,144.06Z" transform="translate(-32.17 -61.51)"/><path class="cls-9" d="M437.72,142.84c.14,0,.32.09.42,0s0-.26-.08-.37a1.65,1.65,0,0,0-.77-.49c-.17-.05-.69-.18-.83,0C436.16,142.38,437.51,142.76,437.72,142.84Z" transform="translate(-32.17 -61.51)"/><path class="cls-9" d="M431.75,143.24a.9.9,0,0,1-.27.11.3.3,0,0,1-.27-.07.24.24,0,0,1,0-.26.57.57,0,0,1,.2-.21,2.14,2.14,0,0,1,.87-.42.53.53,0,0,1,.35,0C433.11,142.62,431.92,143.14,431.75,143.24Z" transform="translate(-32.17 -61.51)"/><path class="cls-5" d="M443.18,207.57a4.07,4.07,0,0,1-1.61,2.08c-6,4.48-19.61,3-25.77-.12-.53-.26-.78-2.94-.91-3.63a33.86,33.86,0,0,1-.47-5.6c-.07-3.6.22-7.2.35-10.79a95,95,0,0,1,3-19.4c.91-3.69,1.71-8.28,4-11.36.6-.81,1.72-2.47,3.28-2.45.59,0,5.91,3.32,7.66.3.2-.35,3.18.59,3.35.75,3.3,2.92,4.45,6.74,5.67,10.81,1.57,5.25,1.31,11.42,1.42,16.87q.12,6.24.12,12.5C443.22,200.58,443.92,204.61,443.18,207.57Z" transform="translate(-32.17 -61.51)"/><path class="cls-7" d="M430.38,253.34q1.74-14.55,2.27-29.21" transform="translate(-32.17 -61.51)"/><path class="cls-7" d="M425.58,229l-1.68,14.68L413.57,243a111.47,111.47,0,0,0,1.12-14.38" transform="translate(-32.17 -61.51)"/><polygon class="cls-7" points="394.4 167.43 381.79 167.08 382.14 164.64 394.4 165.07 394.4 167.43"/><path class="cls-7" d="M422.59,212.06a10.45,10.45,0,0,1-2.65,4.53,9.5,9.5,0,0,1-4.49,1.76c-.05,0-.11,0-.13,0s.05-.09.06,0" transform="translate(-32.17 -61.51)"/><path class="cls-29" d="M423.88,212.71c1.44.66,5.47,2,4.73,2.76-.3.3-1.16.11-1.52.06-.66-.1-1.95-.58-2.41.12-.24.37,0,.84.31,1.2a24,24,0,0,0,2.07,2.44,6.25,6.25,0,0,1,1.57,1.87c.41,1-.9.3-1.28.13a5,5,0,0,1-.81-.46c-.47-.34-.86-.87-1.44-.94a1.18,1.18,0,0,0,.44.76,16,16,0,0,0,1.64,1.45,3.38,3.38,0,0,1,.74.77c.14.18.27.45.12.63s-.46.11-.67,0a9.37,9.37,0,0,1-2.44-1.79c-.12-.12-.48-.56-.68-.49s-.07.47,0,.6a17.65,17.65,0,0,0,1.68,1.41,1.12,1.12,0,0,1,.41.55.28.28,0,0,1-.14.32.32.32,0,0,1-.14,0,2.44,2.44,0,0,1-1.12-.54,6.08,6.08,0,0,1-1.49-1.37,2.41,2.41,0,0,0-.6-.74.17.17,0,0,0-.12,0,.14.14,0,0,0-.06.18,2,2,0,0,0,.31.74c.27.43.57.81.87,1.22.11.15.4.69,0,.65a2.57,2.57,0,0,1-.93-.57c-.22-.18-.45-.37-.65-.57a10.23,10.23,0,0,1-1.64-1.9,6.92,6.92,0,0,1-.71-2.14,9.56,9.56,0,0,0-.7-2.34c-2.17-4.18-4.91-8-7-12.24s-3.68-8.71-5.3-13.15a8.86,8.86,0,0,1,.39-8.75c1-2.21,1.85-6.28,4.75-6.61,2.14-.24,3.87,1.87,5.34,3.1a1,1,0,0,1,.4.56.9.9,0,0,1-.18.54,21.1,21.1,0,0,0-2.51,4.94c-1,3.8.18,7.13,1.24,10.83a104,104,0,0,0,4,11.37c.74,1.78,1.39,4,3.06,5.2A3,3,0,0,0,423.88,212.71Z" transform="translate(-32.17 -61.51)"/><path class="cls-5" d="M425,156.3c4.73,2.13,2.08,14.49-5.93,26.83,0,0-7.58-.58-11.07-4.18C408,179,416.21,152.36,425,156.3Z" transform="translate(-32.17 -61.51)"/><path class="cls-31" d="M435.07,143.9c.26,1.36.5,2.73.73,4.1a.61.61,0,0,1,0,.4.48.48,0,0,1-.25.19,4.09,4.09,0,0,1-1.08.33" transform="translate(-32.17 -61.51)"/><path class="cls-32" d="M425,146.19a2.11,2.11,0,0,1,1.47,1.57" transform="translate(-32.17 -61.51)"/><path class="cls-32" d="M425.74,146.67a1.26,1.26,0,0,0-.85.62" transform="translate(-32.17 -61.51)"/><path class="cls-5" d="M454.26,301a1.58,1.58,0,0,1-.21.79l-19.78.1c-.17,0-.24-.39-.27-.79s0-.79,0-.89a20.13,20.13,0,0,1,.28-3.2c.11-.73.25-3.16.39-3.86s.22-1.29.79-1.19c2.11,2.06,4.79-1.68,6.52-.11a15.33,15.33,0,0,0,2.13,2.17c1.65,1.47,3.42,1.7,5.81,2.68,3.09,1.27,4.15,3,4.33,3.93A1.67,1.67,0,0,1,454.26,301Z" transform="translate(-32.17 -61.51)"/><path class="cls-9" d="M454.26,301a1.58,1.58,0,0,1-.21.79l-19.78.1c-.17,0-.24-.39-.27-.79Z" transform="translate(-32.17 -61.51)"/><path class="cls-7" d="M444.61,294.71l-.9,1.2" transform="translate(-32.17 -61.51)"/><path class="cls-7" d="M445.74,295.42l-.9,1.19" transform="translate(-32.17 -61.51)"/><path class="cls-7" d="M447.05,295.84l-.91,1.2" transform="translate(-32.17 -61.51)"/><path class="cls-7" d="M448.35,296.29l-.9,1.2" transform="translate(-32.17 -61.51)"/><path class="cls-5" d="M434.46,301a1.52,1.52,0,0,1-.2.79l-19.79.1c-.16,0-.24-.39-.27-.79s0-.79,0-.89a19,19,0,0,1,.29-3.2c.1-.73.24-3.16.38-3.86s.22-1.29.79-1.19c2.11,2.06,4.79-1.68,6.53-.11a14.68,14.68,0,0,0,2.12,2.17c1.66,1.47,3.42,1.7,5.81,2.68,3.09,1.27,4.16,3,4.33,3.93A1.67,1.67,0,0,1,434.46,301Z" transform="translate(-32.17 -61.51)"/><path class="cls-9" d="M434.46,301a1.52,1.52,0,0,1-.2.79l-19.79.1c-.16,0-.24-.39-.27-.79Z" transform="translate(-32.17 -61.51)"/><path class="cls-7" d="M424.81,294.71l-.9,1.2" transform="translate(-32.17 -61.51)"/><path class="cls-7" d="M426,295.42l-.91,1.19" transform="translate(-32.17 -61.51)"/><path class="cls-7" d="M427.25,295.84l-.91,1.2" transform="translate(-32.17 -61.51)"/><path class="cls-7" d="M428.55,296.29l-.9,1.2" transform="translate(-32.17 -61.51)"/><path class="cls-7" d="M442.93,178.61a62.72,62.72,0,0,0-3-15.1" transform="translate(-32.17 -61.51)"/><path class="cls-7" d="M416.46,182.76a21.26,21.26,0,0,0,3.35.63,89.1,89.1,0,0,0,5.61-14.28" transform="translate(-32.17 -61.51)"/><path class="cls-32" d="M431.73,154.93a7.1,7.1,0,0,1-3.73-2" transform="translate(-32.17 -61.51)"/><path class="cls-29" d="M672,252.05c0,.61.63,30.82.9,43.63,0,1.33-4.54,3.55-5.68,3.48-1.34-.09,5.81,2.71,5.81,2.71h5.56s5.35-21,4.44-52.16Z" transform="translate(-32.17 -61.51)"/><path class="cls-29" d="M683.6,253c.11.61,7.22,31.25,9.68,43.41.17.79-2.78,1.62-2.66,2.24.34,1.66,2.87,3.19,2.87,3.19l6.6-4.39s.39-18.23-6.06-48.71Z" transform="translate(-32.17 -61.51)"/><path class="cls-9" d="M695.71,175.43a12.4,12.4,0,0,0,8.58-16.87c-1.18-2.8-3.38-5.17-4-8.14-.57-2.55.06-5.23-.42-7.79a9.28,9.28,0,0,0-5-6.55,9.1,9.1,0,0,0-4.3-.87,9.3,9.3,0,0,0-2.34.38c-1.15.35-1.95-.12-3-.57a5.94,5.94,0,0,0-3.38-.44,9,9,0,0,0-7.66,7.92c-.23,1.86,1.13,3.43,2,5,1.1,2.12,1.89,4.71.85,6.86-.68,1.39-2,2.34-3,3.53-2.52,3.08-2.49,7.78-.45,11.19a14.33,14.33,0,0,0,9.71,6.32A31.44,31.44,0,0,0,695.71,175.43Z" transform="translate(-32.17 -61.51)"/><path class="cls-29" d="M680.64,160.12c-.18.41-.38.8-.59,1.2s-2.8,4.75-3,4.52c2.11,2.23,5.68,2.62,8.56,1.55s6.28-5.61,8.08-8.1c-1.57-.42-4.22-.93-5-2.47a5.37,5.37,0,0,1-.52-1.89,15.65,15.65,0,0,1,.15-4.83c-1.6,2-3.33,4.16-5.76,5.07a1,1,0,0,0-.31.16,1,1,0,0,0-.24.61A15.33,15.33,0,0,1,680.64,160.12Z" transform="translate(-32.17 -61.51)"/><path class="cls-29" d="M676.47,149.71a11.79,11.79,0,0,0,2,4.85,5.85,5.85,0,0,0,5.87,2c2.2-.64,3.64-3.62,4.17-5.66a9.72,9.72,0,0,0,.21-5,25.77,25.77,0,0,0-1.58-3.37,5,5,0,0,0-3.95-2.75,5.74,5.74,0,0,0-5.32,2.29,7.81,7.81,0,0,0-1.55,7C676.38,149.29,676.43,149.5,676.47,149.71Z" transform="translate(-32.17 -61.51)"/><path class="cls-29" d="M687.37,147.83a4.06,4.06,0,0,1,.56-1.71,1.54,1.54,0,0,1,1.54-.73c.8.18,1.16,1.13,1.17,2a3.05,3.05,0,0,1-.68,2c-.52.59-2.11,1.13-2.46.09A4,4,0,0,1,687.37,147.83Z" transform="translate(-32.17 -61.51)"/><path class="cls-15" d="M680.38,160c-2.67.78-4.64,3.11-5.8,5.63a52,52,0,0,0-2.38,8c-2.15,7.83-6.82,14.82-8.25,22.87a29.18,29.18,0,0,0,1,13.06c1.15,4,3.69,7.53,4.75,11.46,2.66,9.85-1,17.19-1.13,27.39,0,2.48,3.06,2.46,5.37,3.37a31.24,31.24,0,0,0,25.49-1.34c1-.5,1.77-5,2.07-6.09q.94-3.3,1.56-6.68a58.18,58.18,0,0,0,1.15-14.05c-.3-4.21.15-8.5-.23-12.76-.42-4.69-.2-5.35-1.72-9.8,6.21-4.07,11.29-12.68,11.29-16.83,0-6.21-11.65-23.12-23.55-26.23a14,14,0,0,1-2.38,2.87,5.85,5.85,0,0,1-3.84,1.44A3.83,3.83,0,0,1,680.38,160Z" transform="translate(-32.17 -61.51)"/><path class="cls-29" d="M695,204.79a9.45,9.45,0,0,0-.31,1.16c-.07.35-.49,2.18.2,1.89.28-.11,1.18-3,1.53-2.7a.38.38,0,0,1,.08.24,11.72,11.72,0,0,1,0,2.58,18.18,18.18,0,0,1-.38,1.78c-.11.48-.36,1.06-.11,1.54a.26.26,0,0,0,.14.15c.49.19,1.13-2.82,1.28-3.21s.33-.29.34.05l.11,3.6a.5.5,0,0,0,.09.34c.48.55.73-.75.77-1s.07-.64.1-1A9.94,9.94,0,0,0,699,209a1.64,1.64,0,0,1,.1-1,.07.07,0,0,1,.05,0s.07,0,.08.08c.18.58.11,1.18.26,1.74a3.33,3.33,0,0,0,.25,1c0,.07.1.15.18.13.3-.1.37-.95.38-1.21a13.37,13.37,0,0,0,0-1.79,5.46,5.46,0,0,0,.34,1.13.15.15,0,0,0,.09.1.13.13,0,0,0,.1-.08,1.68,1.68,0,0,0,0-1c-.24-1.16-.45-2.33-.63-3.49-.1-.6-.18-1.2-.26-1.79,0-.12,0-1.5.21-1.43-.59-.2-2.72-.86-2.57-1.72a11.2,11.2,0,0,1-1.88,4A6.56,6.56,0,0,0,695,204.79Z" transform="translate(-32.17 -61.51)"/><path class="cls-7" d="M669.31,215.55a14.14,14.14,0,0,0,18.6-.91" transform="translate(-32.17 -61.51)"/><path class="cls-29" d="M666.74,187.55c-.23,1.88.82,3.64,1.25,5.49a.34.34,0,0,1,0,.28c-.13.16-.37,0-.49-.18l-1.05-1.49c-.24,1.37.49,2.73.52,4.12a.28.28,0,0,1,0,.18c-.11.14-.33,0-.41-.19a8.9,8.9,0,0,1-1-3s-.19-.13-.25-.11-.06.08-.07.14l-.35,2.44c-.19.05-.32-.18-.36-.37a7.42,7.42,0,0,1,.33-4A11.46,11.46,0,0,1,666.74,187.55Z" transform="translate(-32.17 -61.51)"/><path class="cls-7" d="M695.24,171.13a40.32,40.32,0,0,1,10.17,13.24,76.17,76.17,0,0,1-9.31,13.16,5.39,5.39,0,0,0,.48,1.25,6.72,6.72,0,0,0,4.6,2.81" transform="translate(-32.17 -61.51)"/><path class="cls-32" d="M688.49,147.86a2.6,2.6,0,0,1,1.24-1.7" transform="translate(-32.17 -61.51)"/><path class="cls-32" d="M689,146.73a1.46,1.46,0,0,1,.89,1.27" transform="translate(-32.17 -61.51)"/><path class="cls-32" d="M681.58,146.89a14.79,14.79,0,0,1-.52,3.16,1.21,1.21,0,0,0-.06.38.36.36,0,0,0,.2.31.51.51,0,0,0,.3,0l.49-.09" transform="translate(-32.17 -61.51)"/><path class="cls-9" d="M679.21,145.83a1.37,1.37,0,0,0,.47-.27.49.49,0,0,0,.16-.5.14.14,0,0,0-.07-.1c-.06-.05-.14,0-.22,0a4.48,4.48,0,0,0-1.77.85c-.35.28-.17.54.22.44A10.71,10.71,0,0,0,679.21,145.83Z" transform="translate(-32.17 -61.51)"/><path class="cls-9" d="M683.57,145.45a4,4,0,0,0,.76.18,1.29,1.29,0,0,0,.75-.15l0,0c0-.06,0-.14-.08-.18a3.17,3.17,0,0,0-1.65-.59c-.21,0-.73,0-.63.38S683.36,145.39,683.57,145.45Z" transform="translate(-32.17 -61.51)"/><path class="cls-9" d="M679.06,148.11s0,0,.05.06a.14.14,0,0,0,.14,0,.32.32,0,0,0,.1-.1,1,1,0,0,0,.15-.4,1.68,1.68,0,0,0,0-.5.48.48,0,0,0-.07-.23.21.21,0,0,0-.2-.11C678.75,146.88,678.92,147.86,679.06,148.11Z" transform="translate(-32.17 -61.51)"/><path class="cls-9" d="M683.49,147.83a.09.09,0,0,0,0,.06.14.14,0,0,0,.14,0,.24.24,0,0,0,.1-.1.85.85,0,0,0,.15-.4,1.68,1.68,0,0,0,0-.5.46.46,0,0,0-.06-.23.23.23,0,0,0-.21-.11C683.17,146.61,683.34,147.58,683.49,147.83Z" transform="translate(-32.17 -61.51)"/><path class="cls-32" d="M680.07,152.33a1.9,1.9,0,0,0,1.49,1,1.87,1.87,0,0,0,1.61-.72" transform="translate(-32.17 -61.51)"/><path class="cls-9" d="M689,145.28a.67.67,0,0,1-.37.39,3.08,3.08,0,0,1-1.92-.09,11.18,11.18,0,0,1-4.48-2.6c-.27-.25-.6-.81-.92-1s-.67.34-.95.62a17.79,17.79,0,0,1-2.09,1.79,3.57,3.57,0,0,1-2.43.89c-.15,0-.06-.37,0-.51.26-1,.57-1.89.91-2.81a9.6,9.6,0,0,1,1.26-2.47,5.89,5.89,0,0,1,4.92-2.23,6.58,6.58,0,0,1,4.79,2.58,7.35,7.35,0,0,1,1.37,4.26A3.43,3.43,0,0,1,689,145.28Z" transform="translate(-32.17 -61.51)"/><path class="cls-32" d="M681.85,156.6A6.32,6.32,0,0,0,686.4,155" transform="translate(-32.17 -61.51)"/><path class="cls-13" d="M662.07,301a1.53,1.53,0,0,0,.19.74l17.81.09c.15,0,.22-.36.25-.73s0-.73,0-.83c0-1-.36-5.23-.48-5.88s-4.38,2.07-5.94,3.52c0,0-1.19-4.73-2.68-3.36s-3.08,1.57-5.24,2.48c-2.78,1.18-3.73,2.82-3.89,3.63A1.48,1.48,0,0,0,662.07,301Z" transform="translate(-32.17 -61.51)"/><path class="cls-9" d="M662.07,301a1.53,1.53,0,0,0,.19.74l17.81.09c.15,0,.22-.36.25-.73Z" transform="translate(-32.17 -61.51)"/><path class="cls-7" d="M671.17,294.88a7.68,7.68,0,0,1,2.11,4.09" transform="translate(-32.17 -61.51)"/><path class="cls-7" d="M679.91,297.35a6.35,6.35,0,0,0-2.9,3.4l.07-.12" transform="translate(-32.17 -61.51)"/><path class="cls-13" d="M682.3,301a1.53,1.53,0,0,0,.19.74l17.81.09c.15,0,.22-.36.25-.73s0-.73,0-.83c0-1-.35-5.23-.48-5.88s-4.38,2.07-5.94,3.52c0,0-1.19-4.73-2.68-3.36s-3.08,1.57-5.23,2.48c-2.79,1.18-3.74,2.82-3.9,3.63A1.48,1.48,0,0,0,682.3,301Z" transform="translate(-32.17 -61.51)"/><path class="cls-9" d="M682.3,301a1.53,1.53,0,0,0,.19.74l17.81.09c.15,0,.22-.36.25-.73Z" transform="translate(-32.17 -61.51)"/><path class="cls-7" d="M691.4,294.88a7.77,7.77,0,0,1,2.12,4.09" transform="translate(-32.17 -61.51)"/><path class="cls-7" d="M700.14,297.35a6.39,6.39,0,0,0-2.9,3.4l.07-.12" transform="translate(-32.17 -61.51)"/><path class="cls-47" d="M616.52,144s-.07.46-.19,1.28-.27,2-.38,3.4a26.4,26.4,0,0,0,0,4.8,8,8,0,0,0,.66,2.57,2.68,2.68,0,0,0,.82,1,1.77,1.77,0,0,0,.54.29,3.11,3.11,0,0,0,.66.1,2.24,2.24,0,0,0,2-1.42,7.76,7.76,0,0,0,.6-2.58,25.89,25.89,0,0,0-.09-4.8c-.14-1.41-.3-2.58-.44-3.39l-.21-1.28c-.48-2.73-1-5.19-1.44-7-.2-.89-.36-1.61-.48-2.11a3.94,3.94,0,0,1-.14-.79,2.83,2.83,0,0,1,.29.75c.16.48.37,1.2.61,2.08.48,1.77,1.07,4.23,1.55,7l.22,1.28c.13.82.3,2,.44,3.42a26.71,26.71,0,0,1,.09,4.88,8.29,8.29,0,0,1-.64,2.71,3.15,3.15,0,0,1-.92,1.17,2.42,2.42,0,0,1-1.44.48,3.47,3.47,0,0,1-.73-.11,2.05,2.05,0,0,1-.71-.35,3.25,3.25,0,0,1-.94-1.15,8.15,8.15,0,0,1-.69-2.71,25.59,25.59,0,0,1,0-4.88c.11-1.42.26-2.59.38-3.42l.2-1.29c.44-2.74,1-5.21,1.44-7,.23-.88.43-1.6.58-2.09a3.46,3.46,0,0,1,.27-.75,3,3,0,0,1-.12.79c-.11.5-.26,1.23-.45,2.12C617.47,138.83,617,141.29,616.52,144Z" transform="translate(-32.17 -61.51)"/><line class="cls-45" x1="595.83" y1="111.91" x2="595.83" y2="74.02"/><path class="cls-51" d="M624.73,170.06l-.57-2a1.5,1.5,0,0,1,1.45-1.91h4.77a1.5,1.5,0,0,1,1.47,1.81l-.44,2.12Z" transform="translate(-32.17 -61.51)"/><path class="cls-51" d="M632.31,177.39h-8.63s-.15,1.89,2.16,4.57a10.53,10.53,0,0,1,1.72,2.63.45.45,0,0,0,.86,0,10.92,10.92,0,0,1,1.73-2.63C632.46,179.28,632.31,177.39,632.31,177.39Z" transform="translate(-32.17 -61.51)"/><path class="cls-13" d="M628,168.21c-7.11,0-9.43,2.12-9.43,5s1.41,5.1,9.43,5.1,9.43-2.18,9.43-5.1S635.1,168.21,628,168.21Z" transform="translate(-32.17 -61.51)"/><polyline class="cls-7" points="588.73 107.96 591.94 116.61 595.83 106.7 599.81 116.61 602.53 107.77"/><path class="cls-52" d="M630.27,132v1.37a1.63,1.63,0,0,1-1.62,1.63H614.3a1.62,1.62,0,0,1-1.62-1.54l0-1.46" transform="translate(-32.17 -61.51)"/><path class="cls-53" d="M618,154.8c0-.75,0-1.48,0-2.17a30,30,0,0,0-.15-3.79c-.14-1.41-.3-2.57-.44-3.38s-.21-1.28-.21-1.28c-.49-2.72-1.08-5.16-1.56-6.91-.23-.88-.44-1.59-.6-2.07s-.2-.6-.25-.7,0,0,0,0v.21h0c0,.32.14,1,.3,1.92.21,1.31.51,3.11.79,5.1,0,0,.21,1.36.38,3.4a26,26,0,0,1,.08,3.49,7.82,7.82,0,0,1-.29,1.91c-.16.61-.57,1.22-1.14,1.14l-.26,0-.18-.09c-.13,0-.23-.17-.35-.25a2.48,2.48,0,0,1-.46-.81,7.29,7.29,0,0,1-.38-1.89,23.53,23.53,0,0,1,0-3.48c.15-2,.36-3.4.36-3.4.28-2,.59-3.79.82-5.09,0-.24.08-.46.11-.66l-.26-.05c-.12.4-.24.87-.38,1.4-.45,1.76-1,4.21-1.44,6.94,0,0-.07.46-.2,1.28s-.27,2-.38,3.39a31.09,31.09,0,0,0-.1,3.43c0,.69,0,1.4,0,2.14a33.36,33.36,0,0,0,.06,3.71,13.49,13.49,0,0,0,.59,3.31,4.5,4.5,0,0,0,.85,1.56,2.44,2.44,0,0,0,.74.57,2.19,2.19,0,0,0,1.85,0,2.43,2.43,0,0,0,.73-.58,4.55,4.55,0,0,0,.82-1.57,14,14,0,0,0,.55-3.32C618,157,618,155.85,618,154.8Zm-5.2-6.91c0,.23,0,.47,0,.71a7.9,7.9,0,0,0,.4,2,3,3,0,0,0,.55.95,1.88,1.88,0,0,0,.48.34,2.12,2.12,0,0,0,.29.11l.25,0a1.25,1.25,0,0,0,1.09-.45,2.72,2.72,0,0,0,.5-1,8.44,8.44,0,0,0,.3-2c0-.23,0-.46,0-.69a30.57,30.57,0,0,1,.07,3.76,9.88,9.88,0,0,1-.39,2.33,2.83,2.83,0,0,1-.55,1,1.24,1.24,0,0,1-.94.38,1.55,1.55,0,0,1-1-.44,3.23,3.23,0,0,1-.61-1,8.65,8.65,0,0,1-.48-2.3A25,25,0,0,1,612.75,147.89Zm-.51,4.39q0-.61.09-1.17l0,.59a9.11,9.11,0,0,0,.51,2.41,3.4,3.4,0,0,0,.7,1.12,2,2,0,0,0,1.22.56,1.6,1.6,0,0,0,1.3-.51,3.09,3.09,0,0,0,.64-1.16,10,10,0,0,0,.41-2.43c0-.65,0-1.29,0-1.9.08.73.17,1.55.24,2.45,0,.48.07,1,.1,1.49a7.63,7.63,0,0,1-.6,2.48,2.22,2.22,0,0,1-2,1.4,3.8,3.8,0,0,1-.65-.1,1.68,1.68,0,0,1-.55-.28,2.73,2.73,0,0,1-.82-1,7.69,7.69,0,0,1-.66-2.55c0-.15,0-.28,0-.43C612.2,152.93,612.22,152.59,612.24,152.28Zm5.27,3.43a10,10,0,0,1-.56,2.79,2.29,2.29,0,0,1-2.05,1.7,2.4,2.4,0,0,1-.7-.13l-.3-.14-.28-.22a3.37,3.37,0,0,1-.46-.53c-.11-.22-.24-.43-.33-.66a10,10,0,0,1-.62-2.84.66.66,0,0,0,0-.14,6.25,6.25,0,0,0,.34.87,3.18,3.18,0,0,0,.94,1.13,2.07,2.07,0,0,0,.7.34,3.29,3.29,0,0,0,.73.11,2.44,2.44,0,0,0,1.42-.47,3.19,3.19,0,0,0,.92-1.15A5.32,5.32,0,0,0,617.51,155.71Zm0,2.39a13.29,13.29,0,0,1-.53,3.22,4.37,4.37,0,0,1-.74,1.44,2.16,2.16,0,0,1-.61.48,1.91,1.91,0,0,1-.75.17,1.77,1.77,0,0,1-1.36-.64,4.25,4.25,0,0,1-.77-1.42,13.8,13.8,0,0,1-.58-3.22,2.72,2.72,0,0,0,0-.28,8.09,8.09,0,0,0,.28.83c.1.24.24.47.36.71a3.21,3.21,0,0,0,.54.62l.33.26a3,3,0,0,0,.41.18.87.87,0,0,0,.39.1l.41,0a2.32,2.32,0,0,0,1.54-.6,3.61,3.61,0,0,0,.53-.64c.11-.24.26-.47.35-.71s.15-.44.21-.66Z" transform="translate(-32.17 -61.51)"/><polygon class="cls-6" points="530.78 136.34 541.74 156.83 526.01 156.83 530.78 136.34"/><polygon class="cls-54" points="530.78 136.34 520.23 156.83 526.01 156.83 530.78 136.34"/><path class="cls-55" d="M600.49,202.29a61,61,0,0,0,4-5,23,23,0,0,0,2.49-4.18c1.49-3.42,1.62-7.27,1.44-11a4.48,4.48,0,0,0-.56-2.32.64.64,0,0,0-.27-.27c-.43-.18-.77.38-.9.83a15.07,15.07,0,0,1-2.68,5,36.84,36.84,0,0,0-7.42,16C597.85,201.7,599.24,201.94,600.49,202.29Z" transform="translate(-32.17 -61.51)"/><path class="cls-55" d="M577.45,188.77a46,46,0,0,1-1.71-15.45c0-.63.18-1.41.79-1.54a1,1,0,0,1,1,.52,4.45,4.45,0,0,1,.42,1.12,17,17,0,0,0,2.54,4c1.91,2.79,2.75,6.17,4.44,9.1.66,1.15,1.45,2.23,2,3.41,1.58,3.14,1.68,6.79,1.68,10.3a1.51,1.51,0,0,1-.1.7,1.37,1.37,0,0,1-.6.54c-1,.53-3,1.13-4,.41s-1.8-3-2.41-4.1A48.88,48.88,0,0,1,577.45,188.77Z" transform="translate(-32.17 -61.51)"/><path class="cls-48" d="M587.57,201.15c.43-3.19-.8-6.38-2.35-9.2s-3.44-5.47-4.54-8.5c-1.87-5.16-1.22-10.86-.45-16.3.45-3.19.81-6.45,1.5-9.6.22-1,.54-2.09,1.46-2.49a2.19,2.19,0,0,1,2.38.69,6.51,6.51,0,0,1,1.16,2.36c.51,1.54,1,3.09,1.54,4.63,1,3.11,2.23,6.45,2.09,9.77a19,19,0,0,0,1.32,7.11c.75,2.09,2,3.57,2.45,5.8a31,31,0,0,1-1,15.34.79.79,0,0,1-.93.68l-4.32.12a.33.33,0,0,1-.3-.11C587.58,201.36,587.53,201,587.57,201.15Z" transform="translate(-32.17 -61.51)"/><path class="cls-48" d="M594.44,187c.42-5.24.92-10.74,3.88-15.08,1.59-2.36,3.93-4.45,4.25-7.27a5.29,5.29,0,0,1,.25-1.49c.35-.78,1-.23,1.33.31a14.92,14.92,0,0,1,1.49,5.32,38.06,38.06,0,0,1-.07,11.67,52.47,52.47,0,0,1-2.16,9.23,43.7,43.7,0,0,1-4.49,9.22,4.83,4.83,0,0,1-1.5,1.67c-.93.56-2.44.17-3.48.07s-.18-5.17-.1-6.19Z" transform="translate(-32.17 -61.51)"/><path class="cls-48" d="M573.92,185.75c0-.52.05-1.17.54-1.36a1.14,1.14,0,0,1,1.12.39c.63.59.8,1.44,1.31,2.14,1,1.38,2.55,2,3.81,3.07a9.92,9.92,0,0,1,2.12,2.61,17.34,17.34,0,0,1,2.45,8.23c-.84.09-1.68.16-2.53.18-2.68.09-5-3.92-6.17-6A20.63,20.63,0,0,1,573.92,185.75Z" transform="translate(-32.17 -61.51)"/><path class="cls-56" d="M592.06,200.55a38.73,38.73,0,0,1,4.75.1.66.66,0,0,0,.44-.08.72.72,0,0,0,.25-.34,31.4,31.4,0,0,0,3-10c.07-.61.11-1.2.15-1.75A30.31,30.31,0,0,0,598,173.78c-1.55-3.35-3.62-7.09-3.88-10.82a24.43,24.43,0,0,1,0-5.27,18.92,18.92,0,0,0,.28-5.41c-.11-.72-.82-3.32-1.81-2s-1.43,3.32-2,4.93l-2,5.92c-2,6-2.86,12.2-.64,18.23C590.31,185.85,593.91,193.51,592.06,200.55Z" transform="translate(-32.17 -61.51)"/><path class="cls-8" d="M602.87,199.12a1.48,1.48,0,0,1,1.35,1.33,12.26,12.26,0,0,1-.12,2.9,41.62,41.62,0,0,1-3.5,12,5,5,0,0,1-1.59,2.2,5.23,5.23,0,0,1-2.65.65q-2.91.17-5.83.11c-1,0-2-.06-2.95-.12a21.23,21.23,0,0,1-2.76-.21,3.28,3.28,0,0,1-2.39-2.24,48.52,48.52,0,0,1-2.82-9.6c-.37-2-1.13-4.25-.18-5.93a1.1,1.1,0,0,1,.77-.55C585.37,198.65,598.69,198.72,602.87,199.12Z" transform="translate(-32.17 -61.51)"/><path class="cls-19" d="M588.22,207.09a20.92,20.92,0,0,0,2.39-4.14h2.17s-.65,5-2.79,6.42a4.24,4.24,0,0,1-3.94.53Z" transform="translate(-32.17 -61.51)"/><path class="cls-19" d="M576.85,205.69c-.25-1.21-1.15-3.09-3.12-3.09h0c-2.44,0-3.09,3-3.09,4.81,0,1.51,1.73,4.52,5.72,4.62h.11a2.2,2.2,0,0,0,2.18-1.11C579.42,209.33,577.76,206.86,576.85,205.69Zm-.45,4.37c-3.07-.08-3.8-2.32-3.8-2.65,0-1,.34-2.84,1.13-2.84h0c.93,0,1.21,1.64,1.22,1.68l0,.26.17.21c1,1.21,1.8,2.8,1.72,3.29A1.28,1.28,0,0,1,576.4,210.06Z" transform="translate(-32.17 -61.51)"/><path class="cls-19" d="M586.25,201.84s-.41-4.24-4-4.24-4,4.24-4,4.24A12.26,12.26,0,0,0,586.25,201.84Z" transform="translate(-32.17 -61.51)"/><circle class="cls-19" cx="549.94" cy="135.36" r="1.16"/><path class="cls-13" d="M577.72,213.6h8.45a1.69,1.69,0,0,0,1.3-.58,7.28,7.28,0,0,0,1.79-4.78c0-4-3.27-8.63-7.31-8.63s-7.32,4.59-7.32,8.63a7.28,7.28,0,0,0,1.79,4.78A1.72,1.72,0,0,0,577.72,213.6Z" transform="translate(-32.17 -61.51)"/><path class="cls-15" d="M583,207.32a.9.9,0,1,0-.9.9A.9.9,0,0,0,583,207.32Z" transform="translate(-32.17 -61.51)"/><rect class="cls-5" x="581.25" y="203.74" width="1.73" height="1.73" transform="translate(-6.35 410.03) rotate(-45)"/><rect class="cls-5" x="578.53" y="206.45" width="1.73" height="1.73" transform="translate(-9.06 408.9) rotate(-45)"/><rect class="cls-5" x="581.25" y="209.16" width="1.73" height="1.73" transform="translate(-10.18 411.62) rotate(-45)"/><rect class="cls-5" x="583.96" y="206.45" width="1.73" height="1.73" transform="translate(-7.47 412.74) rotate(-45)"/><rect class="cls-5" x="547.16" y="143.02" width="1.73" height="1.73"/><rect class="cls-5" x="547.16" y="146.86" width="1.73" height="1.73"/><rect class="cls-5" x="551" y="146.86" width="1.73" height="1.73"/><rect class="cls-5" x="551" y="143.02" width="1.73" height="1.73"/><line class="cls-57" x1="472.46" y1="118.54" x2="472.46" y2="122.55"/><ellipse class="cls-13" cx="472.44" cy="123.16" rx="0.9" ry="1.24"/><path class="cls-8" d="M514.9,218.29H500.47s.84-23.34,2.18-27.84c1.09-3.65,5.26-4.77,6.8-5.07a.71.71,0,0,0,.58-.7v-3.61h9.75v3.61a.71.71,0,0,0,.57.7c1.54.3,5.71,1.42,6.8,5.07,1.34,4.5,2.19,27.84,2.19,27.84Z" transform="translate(-32.17 -61.51)"/><polygon class="cls-15" points="497.17 120.21 467.64 120.21 472.3 88.18 492.51 88.18 497.17 120.21"/><line class="cls-58" x1="490.6" y1="90.34" x2="494.76" y2="118.54"/><line class="cls-58" x1="488.14" y1="90.55" x2="490.6" y2="118.54"/><line class="cls-58" x1="485.22" y1="90.55" x2="486.18" y2="118.54"/><line class="cls-58" x1="474.21" y1="90.34" x2="470.06" y2="118.54"/><line class="cls-58" x1="476.68" y1="90.55" x2="474.21" y2="118.54"/><line class="cls-58" x1="479.59" y1="90.55" x2="478.64" y2="118.54"/><line class="cls-58" x1="482.41" y1="90.55" x2="482.41" y2="118.8"/><path class="cls-13" d="M543,191.82a.58.58,0,0,1-.59-.59v-3.51a.59.59,0,1,1,1.17,0v3.51A.58.58,0,0,1,543,191.82Z" transform="translate(-32.17 -61.51)"/><path class="cls-6" d="M548.42,192.15c0,.65-.74,1.18-1.66,1.18h-9.94c-.91,0-1.66-.53-1.66-1.18s.75-1.19,1.66-1.19h9.94C547.68,191,548.42,191.49,548.42,192.15Z" transform="translate(-32.17 -61.51)"/><path class="cls-13" d="M538.72,188.86a13.45,13.45,0,0,1-2.59-26.65.44.44,0,0,1,.17.87,12.57,12.57,0,1,0,10.09,22.29.44.44,0,0,1,.53.7A13.26,13.26,0,0,1,538.72,188.86Z" transform="translate(-32.17 -61.51)"/><path class="cls-13" d="M543,188.15a.43.43,0,0,1-.41-.28l-9.34-24.26a.44.44,0,0,1,.82-.32l9.34,24.27a.45.45,0,0,1-.25.57A.47.47,0,0,1,543,188.15Z" transform="translate(-32.17 -61.51)"/><path class="cls-59" d="M550.23,175.41a11.52,11.52,0,1,1-11.52-11.51,10.8,10.8,0,0,1,2.36.25A11.51,11.51,0,0,1,550.23,175.41Z" transform="translate(-32.17 -61.51)"/><circle class="cls-1" cx="506.55" cy="113.9" r="11.51"/><g class="cls-60"><path class="cls-48" d="M534.92,168.55c1,0,2.09-.33,3,.11a2.66,2.66,0,0,1,1.3,1.74,3.94,3.94,0,0,1-2.46,4.58,10.85,10.85,0,0,0-2.1.64c-.64.36-1.06,1.28-.59,1.84a3,3,0,0,0,.79.51.77.77,0,0,1,.44.77c-.08.36-.53.49-.9.48a3.35,3.35,0,0,1-2.94-1.9,6.18,6.18,0,0,1-.4-2.6,8.93,8.93,0,0,0-.23-2.63,2.59,2.59,0,0,0-1.74-1.83,4.83,4.83,0,0,1-1.58-.31c-1.64-1,.57-3.79,2-3.72.93.05,1.64,1,2.38,1.48A5.57,5.57,0,0,0,534.92,168.55Z" transform="translate(-32.17 -61.51)"/><path class="cls-48" d="M536.21,178.91a1.71,1.71,0,0,0-.26.21,1.64,1.64,0,0,0-.7,1.42,10.86,10.86,0,0,0,.64,2,9.6,9.6,0,0,1,.63,4.31,4.84,4.84,0,0,0,0,1.37,1.18,1.18,0,0,0,.88,1,1.2,1.2,0,0,0,1.18-.77,4.74,4.74,0,0,0,.27-1.5,8.53,8.53,0,0,1,1.72-4.32,5.5,5.5,0,0,0,.69-1,1.22,1.22,0,0,0,0-1.16c-.36-.57-1.18-.54-1.83-.72a8.84,8.84,0,0,1-1.54-.69,2,2,0,0,0-1.37-.22A1.51,1.51,0,0,0,536.21,178.91Z" transform="translate(-32.17 -61.51)"/><path class="cls-48" d="M546.19,170.19c-.48.65-.39,1.56-.77,2.28a6.49,6.49,0,0,1-1.1,1.25,1.85,1.85,0,0,0-.63,1.48,1.29,1.29,0,0,0,1.13,0c.36-.16.67-.41,1-.57a2.27,2.27,0,0,1,3,1.07,9.62,9.62,0,0,1,.25,1.3,1.42,1.42,0,0,0,.71,1.05,1.16,1.16,0,0,0,1.32-.44,2.7,2.7,0,0,0,.45-1.4,8.79,8.79,0,0,0-1.59-5.63A2.33,2.33,0,0,0,546.19,170.19Z" transform="translate(-32.17 -61.51)"/><path class="cls-48" d="M547.71,176.21c-.6,0-1.07-.52-1.64-.7a2.44,2.44,0,0,0-2.16.76,2.83,2.83,0,0,0-.87,1.13,1.12,1.12,0,0,0,.35,1.28c.6.39,1.49-.06,2.05.37s.35,1.28.42,2a2.24,2.24,0,0,0,3.82,1.24c1.08-1,.26-2.59-.2-3.73-.22-.53-.41-1.08-.63-1.61S548.44,176.15,547.71,176.21Z" transform="translate(-32.17 -61.51)"/></g><path class="cls-5" d="M582,212.77H570.29a11.52,11.52,0,0,0,4.09,4.26,2.35,2.35,0,0,0,1.26.36h12.65a2.35,2.35,0,0,0,1.26-.36,11.58,11.58,0,0,0,4.08-4.26Z" transform="translate(-32.17 -61.51)"/><path class="cls-1" d="M606.66,205.19l-10.61.48a22.4,22.4,0,0,0,4.08,8,1.44,1.44,0,0,0,1.17.65l5.75-.26,5.76-.25a1.46,1.46,0,0,0,1.11-.75,22.44,22.44,0,0,0,3.35-8.35Z" transform="translate(-32.17 -61.51)"/><line class="cls-61" x1="583.78" y1="145.07" x2="565.83" y2="145.87"/><path class="cls-48" d="M606.91,209.16l-11.55,1.7a12.82,12.82,0,0,0,4.79,4.44,2.07,2.07,0,0,0,1.31.25l6.25-.93,6.26-.92a2.11,2.11,0,0,0,1.19-.61,12.85,12.85,0,0,0,3.29-5.64Z" transform="translate(-32.17 -61.51)"/><path class="cls-5" d="M606.76,212.77H595.09a12.88,12.88,0,0,0,4.09,5.09,2,2,0,0,0,1.26.43h12.65a2.06,2.06,0,0,0,1.26-.43,13,13,0,0,0,4.08-5.09Z" transform="translate(-32.17 -61.51)"/><path class="cls-1" d="M581.71,214.73H570c.87,1.52,3,2.76,4.08,3.29a2.84,2.84,0,0,0,1.26.27H588a2.84,2.84,0,0,0,1.26-.27c1.05-.53,3.21-1.77,4.09-3.29Z" transform="translate(-32.17 -61.51)"/><path class="cls-61" d="M616.89,214.62c-1,0-1-1.09-2-1.09s-1,1.09-2,1.09-1-1.09-2-1.09-1,1.09-2,1.09-1-1.09-2-1.09-1,1.09-2,1.09-1-1.09-2-1.09-1,1.09-2,1.09-1-1.09-2-1.09-1,1.09-2,1.09" transform="translate(-32.17 -61.51)"/><line class="cls-39" x1="560.07" y1="153.94" x2="539.52" y2="153.94"/><rect class="cls-15" x="508.79" y="194.24" width="1.37" height="14.33" transform="translate(-59.46 30.3) rotate(-10.03)"/><rect class="cls-48" x="511.75" y="192.55" width="0.91" height="15.06" transform="translate(-38.17 -45.41) rotate(-1.79)"/><rect class="cls-48" x="511.24" y="200.4" width="13.24" height="0.91" transform="matrix(0.18, -0.98, 0.98, 0.18, 193.7, 611.85)"/><rect class="cls-19" x="512.91" y="203.21" width="11.15" height="0.91" transform="translate(142.55 580.48) rotate(-73.34)"/><rect class="cls-13" x="509.75" y="202.2" width="13" height="1.37" transform="translate(209.01 623.05) rotate(-81.72)"/><rect class="cls-15" x="508.77" y="200.87" width="13.03" height="0.91" transform="translate(260.39 646.21) rotate(-87.6)"/><rect class="cls-19" x="513.13" y="195.24" width="1.37" height="11.36" transform="translate(-35.93 -51.61) rotate(-1.1)"/><rect class="cls-13" x="510.66" y="195.94" width="0.91" height="12.24" transform="translate(-51.96 -1.6) rotate(-6.58)"/><rect class="cls-5" x="476.21" y="144.26" width="11" height="12.52"/><rect class="cls-62" x="476.21" y="144.26" width="11" height="3.64"/><rect class="cls-62" x="476.21" y="150.52" width="11" height="2.55"/><path class="cls-15" d="M496.68,153.31H525.1a0,0,0,0,1,0,0v3.47a0,0,0,0,1,0,0H496.68a.58.58,0,0,1-.58-.58v-2.31a.58.58,0,0,1,.58-.58Z"/><rect class="cls-5" x="497.71" y="153.96" width="27.4" height="2.19"/><path class="cls-1" d="M529.18,205.39h28.1a0,0,0,0,1,0,0v5.42a0,0,0,0,1,0,0h-28.1a.9.9,0,0,1-.9-.9v-3.61A.9.9,0,0,1,529.18,205.39Z" transform="translate(1053.38 354.69) rotate(-180)"/><rect class="cls-5" x="528.27" y="206.15" width="27.4" height="3.9" transform="translate(1051.78 354.69) rotate(180)"/><path class="cls-48" d="M496.68,149.54H525.1a0,0,0,0,1,0,0V153a0,0,0,0,1,0,0H496.68a.58.58,0,0,1-.58-.58v-2.31A.58.58,0,0,1,496.68,149.54Z"/><rect class="cls-5" x="497.56" y="150.19" width="27.54" height="2.19"/><rect class="cls-15" x="497.71" y="140.15" width="26.97" height="3.48"/><rect class="cls-15" x="497.71" y="131.82" width="26.97" height="3.48"/><rect class="cls-13" x="496.5" y="135.58" width="26.97" height="4.29"/><line class="cls-7" x1="522.53" y1="145.63" x2="506.49" y2="145.63"/><line class="cls-7" x1="514.07" y1="147.02" x2="498.04" y2="147.02"/><line class="cls-7" x1="498.04" y1="135.89" x2="498.04" y2="139.58"/><line class="cls-7" x1="499.23" y1="135.89" x2="499.23" y2="139.58"/><line class="cls-7" x1="520.41" y1="135.89" x2="520.41" y2="139.58"/><line class="cls-7" x1="521.6" y1="135.89" x2="521.6" y2="139.58"/><rect class="cls-38" x="498.42" y="254.01" width="4.28" height="55.21" transform="translate(186.77 720.66) rotate(-90)"/><rect class="cls-38" x="490.71" y="235.04" width="4.28" height="44.24" transform="translate(203.52 688.5) rotate(-90)"/><polygon class="cls-38" points="437.24 240.35 433.14 240.35 445.8 194.88 450.87 194.16 437.24 240.35"/><path class="cls-38" d="M508.09,256.4l-5.06-.73,7.49,25.42H515Z" transform="translate(-32.17 -61.51)"/><path class="cls-38" d="M535.17,301.87,529,279.48h-4.39l6.49,22.39Z" transform="translate(-32.17 -61.51)"/><rect class="cls-13" x="435.59" y="191.76" width="50.55" height="3.89"/><rect class="cls-13" x="482.8" y="216.03" width="15.54" height="3.89"/><path class="cls-55" d="M518.06,233.24c-.47-.75-1.89-.73-3.16.06a7.89,7.89,0,0,0-1.33,1.06,6.46,6.46,0,0,0-1.3,1.81,4.37,4.37,0,0,0-.27.64c-.1-.22-.22-.45-.35-.68a16,16,0,0,0-2.39-3.27,4.71,4.71,0,0,0-2-1.21,1.36,1.36,0,0,0-1.44.25c-.58.69,0,2.1,1.16,3.27.59.58,1.81,1.58,2.92,2.44a11.22,11.22,0,0,0,1.73,1.17l.19,2.57c.05.73.1,1.48.2,2.23.08.6.18,1.21.31,1.81a.42.42,0,0,0,.4.32h.09a.41.41,0,0,0,.31-.49,17.1,17.1,0,0,1-.3-1.74c-.1-.72-.15-1.46-.2-2.19l-.18-2.43a.56.56,0,0,0,0-.08,3.72,3.72,0,0,0,.4-.28c.34-.26.74-.61,1.17-.93a10,10,0,0,1,1.33-.86c.42-.23.87-.45,1.19-.65C517.88,235.26,518.53,234,518.06,233.24Z" transform="translate(-32.17 -61.51)"/><path class="cls-63" d="M515.52,253.27h-6.95l-1.49-9.82a1.55,1.55,0,0,1,1.53-1.79h6.87a1.55,1.55,0,0,1,1.53,1.79Z" transform="translate(-32.17 -61.51)"/><path class="cls-55" d="M501.49,282.79a11.47,11.47,0,0,1,1.13,1.81,10.73,10.73,0,0,1,.49,9.19,11.11,11.11,0,0,1-.94,1.92,13.61,13.61,0,0,1-1-1.87,12.86,12.86,0,0,1-1.14-4.49,13.73,13.73,0,0,1,1.47-6.56Z" transform="translate(-32.17 -61.51)"/><path class="cls-48" d="M476.38,286.21a18.07,18.07,0,0,1,2.25.43,8,8,0,0,1,6.28,5.43,19.48,19.48,0,0,1,.75,2.17,8.21,8.21,0,0,1-2.34.28,6.75,6.75,0,0,1-6.89-5.95A7.93,7.93,0,0,1,476.38,286.21Z" transform="translate(-32.17 -61.51)"/><path class="cls-48" d="M507.21,286.28a7.57,7.57,0,0,1-.42,5.22,5.66,5.66,0,0,1-2.9,2.45,5,5,0,0,1-1.29.29,3.21,3.21,0,0,1-.5,0s.07-.78.16-1.68a7.91,7.91,0,0,1,.8-3.16A7.78,7.78,0,0,1,507.21,286.28Z" transform="translate(-32.17 -61.51)"/><path class="cls-48" d="M495.93,286l.46.25,1.09.64a10.32,10.32,0,0,1,2.7,2.06,8.65,8.65,0,0,1,1.63,3.19,10.18,10.18,0,0,1,.37,1.8,8.29,8.29,0,0,1-1.83-.24,6.38,6.38,0,0,1-3.41-2,5.87,5.87,0,0,1-1.37-3.87,5,5,0,0,1,.2-1.36C495.86,286.22,495.93,286,495.93,286Z" transform="translate(-32.17 -61.51)"/><path class="cls-55" d="M483,281.1a12.77,12.77,0,0,1,1.49,1.84,11.12,11.12,0,0,1,1.88,4.6,11.32,11.32,0,0,1-.53,4.94,12.91,12.91,0,0,1-.92,2.18,11.8,11.8,0,0,1-1.58-1.78,9.66,9.66,0,0,1-1.36-9.63A11.55,11.55,0,0,1,483,281.1Z" transform="translate(-32.17 -61.51)"/><path class="cls-48" d="M489,285.48a7.12,7.12,0,0,1,.9,1.88,4.87,4.87,0,0,1-3.4,6.56,6.94,6.94,0,0,1-2.06.35,14.69,14.69,0,0,1-.34-2,5.08,5.08,0,0,1,3.06-5.9A15.71,15.71,0,0,1,489,285.48Z" transform="translate(-32.17 -61.51)"/><path class="cls-55" d="M486.56,281.24A11.48,11.48,0,0,1,493,294.08a11.48,11.48,0,0,1-6.48-12.84Z" transform="translate(-32.17 -61.51)"/><path class="cls-48" d="M492.5,278.51a12.63,12.63,0,0,1,1.8,2.19,11.16,11.16,0,0,1,1,11.51,13.1,13.1,0,0,1-1.41,2.46,15.56,15.56,0,0,1-1.64-2.29,11.89,11.89,0,0,1-1-11.34A15.49,15.49,0,0,1,492.5,278.51Z" transform="translate(-32.17 -61.51)"/><path class="cls-55" d="M498.59,281.38a5.34,5.34,0,0,1,.27.62,9.86,9.86,0,0,1,.46,1.68,8.52,8.52,0,0,1-4.1,9.15,9.51,9.51,0,0,1-1.56.77,6.58,6.58,0,0,1-.64.21,21.32,21.32,0,0,1,.07-2.34,12.22,12.22,0,0,1,3.8-8.48A20.65,20.65,0,0,1,498.59,281.38Z" transform="translate(-32.17 -61.51)"/><polygon class="cls-8" points="444.35 231.31 446.32 240.39 474.38 240.39 476.36 231.31 444.35 231.31"/><path class="cls-48" d="M479.64,234.7s-1.48-11.45-8.53-18.73-13.88-9.23-16.06-5.63.35,6.16,12.29,14.3,10.52,10.59,10.52,10.59Z" transform="translate(-32.17 -61.51)"/><path class="cls-48" d="M487.45,191.12c5.3.84,6,8.17,4.55,13.23s-7.86,14.47-8.37,21.4-.52,9.48-.52,9.48l-2.27.28s-4.55-11-4.14-21.75S479.56,189.87,487.45,191.12Z" transform="translate(-32.17 -61.51)"/><path class="cls-48" d="M483.27,235.23c-.08-9.29,3.86-18.5,7.33-24.22s12.29-7.36,13.95-4.42-1.87,10.82-4.47,13.71-8.33,5.26-11.16,8.88a19,19,0,0,0-3.52,6.33Z" transform="translate(-32.17 -61.51)"/><path class="cls-57" d="M484.65,233.39A38.06,38.06,0,0,1,499,209.5" transform="translate(-32.17 -61.51)"/><path class="cls-57" d="M478.62,233.53c-2.3-7.16-7.48-13.12-13.48-17.65a56.93,56.93,0,0,0-5.65-3.74" transform="translate(-32.17 -61.51)"/><path class="cls-57" d="M486.7,196.1a13.24,13.24,0,0,0-1.25,3.58c-1.84,7.42-3.69,14.9-4.17,22.53-.23,3.61-.15,7.23-.07,10.85" transform="translate(-32.17 -61.51)"/><g class="cls-64"><path class="cls-19" d="M481.7,253.27h4.91c3.67-3.15,5.09-15.8,5.13-19.44a.9.9,0,0,0-.82-1H472.48a.92.92,0,0,0-.83,1c.05,3.64,1.47,16.29,5.14,19.44h4.91" transform="translate(-32.17 -61.51)"/><line class="cls-65" x1="460.86" y1="175.68" x2="435.59" y2="175.68"/><line class="cls-20" x1="460.86" y1="177.18" x2="435.59" y2="177.18"/><line class="cls-20" x1="460.86" y1="174.06" x2="435.59" y2="174.06"/></g><path class="cls-57" d="M519.3,265s-3.28.8-2.56,2.22,3.21-1.61,3.21-1.61" transform="translate(-32.17 -61.51)"/><path class="cls-57" d="M521.33,266.57s-1.3,1.85-.19,2.42,2.22-1.95,2.22-1.95" transform="translate(-32.17 -61.51)"/><path class="cls-57" d="M524.2,261.46s-.2-4.78,1.64-4.3,0,5.14,0,5.14" transform="translate(-32.17 -61.51)"/></g></svg>