<svg xmlns="http://www.w3.org/2000/svg" viewBox="0 0 71.33 71.33"><defs><style>.cls-1{fill:#f50;}.cls-2{fill:#fff;}</style></defs><title>Fichier 1</title><g id="Calque_2" data-name="Calque 2"><g id="Layer_1" data-name="Layer 1"><circle class="cls-1" cx="35.67" cy="35.67" r="35.67"/><path class="cls-2" d="M61.25,49.52l-7-27.78a4,4,0,0,0-3.87-3H31.48a2.48,2.48,0,0,1-4.92,0H20.9a4,4,0,0,0-3.87,3L10.09,49.52a4,4,0,0,0,3.87,5H57.38A4,4,0,0,0,61.25,49.52Z"/><circle class="cls-2" cx="30.2" cy="12.74" r="1.64"/><circle class="cls-2" cx="29.02" cy="18.56" r="1.64"/><path class="cls-2" d="M34.67,11.82a.92.92,0,1,1-.92-.93A.92.92,0,0,1,34.67,11.82Z"/><path class="cls-2" d="M42,10.5A.93.93,0,1,1,41,9.58.93.93,0,0,1,42,10.5Z"/><path class="cls-2" d="M29,15.65a.93.93,0,0,1-1.85,0,.93.93,0,1,1,1.85,0Z"/><path class="cls-2" d="M43.47,17.62a.93.93,0,1,1-.92-.92A.92.92,0,0,1,43.47,17.62Z"/><path class="cls-2" d="M35.28,8.77a1,1,0,1,1-1-1A1,1,0,0,1,35.28,8.77Z"/><path class="cls-2" d="M41,12.86a.52.52,0,0,1-.52.52.52.52,0,1,1,0-1A.52.52,0,0,1,41,12.86Z"/><path class="cls-2" d="M31.55,15.13a.52.52,0,1,1-1,0,.52.52,0,1,1,1,0Z"/><path class="cls-2" d="M45.63,16.53a.53.53,0,0,1-.52.52.52.52,0,0,1-.52-.52.52.52,0,0,1,.52-.52A.52.52,0,0,1,45.63,16.53Z"/><circle class="cls-2" cx="37.7" cy="10.5" r="1.31"/><path class="cls-2" d="M44.59,14.43a1.58,1.58,0,1,1-3.15,0,1.58,1.58,0,0,1,3.15,0Z"/><path class="cls-1" d="M29.65,22.43h0a2.48,2.48,0,0,1,2.49,2.48V50.27h0a5,5,0,0,1-5-5V24.91A2.48,2.48,0,0,1,29.65,22.43Z"/><path class="cls-1" d="M44.17,42.57a8.21,8.21,0,0,1-8.2,8.2,8.3,8.3,0,0,1-1.75-.19V45.7a3.59,3.59,0,1,0,0-6.27V34.55A8.31,8.31,0,0,1,36,34.37,8.2,8.2,0,0,1,44.17,42.57Z"/></g></g></svg>