<svg xmlns="http://www.w3.org/2000/svg" viewBox="0 0 800 400"><defs><style>.cls-1{fill:#fff;opacity:0;}.cls-2{fill:#f50;}</style></defs><title>rondDeco</title><g id="BACKGROUND"><rect class="cls-1" width="800" height="400"/></g><g id="OBJECTS"><path class="cls-2" d="M559.87,294.65c1.71-4,1.81-8.65,1.3-13a26.35,26.35,0,0,0-3.45-11.07c-12.23-19.41-43.72-2-39.9,19.17C521.42,309.57,552.05,313.25,559.87,294.65Z" transform="translate(0)"/><ellipse class="cls-2" cx="40.36" cy="266.89" rx="10.46" ry="10.97"/><path class="cls-2" d="M787.51,244.5c3.14-5,1.59-12.55-3.27-15.65-7.48-4.8-19.85,3.12-16.86,12.6C770.16,250.25,782.63,252.22,787.51,244.5Z" transform="translate(0)"/><path class="cls-2" d="M792.21,271.42A9.06,9.06,0,0,1,793,275c.1,2.88-3.52,4.7-6,4.09-2.87-.7-4.43-4.68-3-7.37a5.17,5.17,0,0,1,4.72-2.56A3.8,3.8,0,0,1,792.21,271.42Z" transform="translate(0)"/><path class="cls-2" d="M798.44,47.46c1.7-4.05,1.8-8.65,1.29-13a26.35,26.35,0,0,0-3.45-11.07c-12.23-19.41-43.72-2-39.89,19.17C760,62.38,790.61,66.06,798.44,47.46Z" transform="translate(0)"/><path class="cls-2" d="M728.82,400a14.82,14.82,0,0,0,11.83-7.45,19.54,19.54,0,0,0,1.88-11.74c-.71-5.73-3.39-11.35-7.92-14.63a20.33,20.33,0,0,0-10.37-3.56c-4.85-.4-10.2.7-13.4,4.56-3.73,4.49-3.45,11.22-2.35,17.06A19.14,19.14,0,0,0,728.82,400Z" transform="translate(0)"/><path class="cls-2" d="M762.82,272.69a10.68,10.68,0,0,0-15.27-.56c-6.28,6.42-2,20.95,7.45,20.26C763.83,291.75,768.73,279.56,762.82,272.69Z" transform="translate(0)"/><path class="cls-2" d="M760.5,310a7.71,7.71,0,0,1,3.53.1c2.68.61,3.47,4.74,2.29,7.12a4.85,4.85,0,0,1-7.54,1.19,5.68,5.68,0,0,1-1.2-5.43A3.88,3.88,0,0,1,760.5,310Z" transform="translate(0)"/><path class="cls-2" d="M13.09,310a7.71,7.71,0,0,1,3.53.1c2.69.61,3.47,4.74,2.29,7.12a4.85,4.85,0,0,1-7.54,1.19,5.7,5.7,0,0,1-1.2-5.43A3.88,3.88,0,0,1,13.09,310Z" transform="translate(0)"/><path class="cls-2" d="M98,76.49c3.94-9.51,4.17-20.33,3-30.66-1-9.14-3.22-18.35-8-26C64.74-25.84-8.11,15.13.74,64.87,9.05,111.58,79.92,120.22,98,76.49Z" transform="translate(0)"/></g></svg>